<?xml version="1.0" standalone="no"?>
<!DOCTYPE svg PUBLIC "-//W3C//DTD SVG 20010904//EN"
 "http://www.w3.org/TR/2001/REC-SVG-20010904/DTD/svg10.dtd">
<svg version="1.0" xmlns="http://www.w3.org/2000/svg"
 width="900.000000pt" height="450.000000pt" viewBox="0 0 900.000000 450.000000"
 preserveAspectRatio="xMidYMid meet">

<g transform="translate(0.000000,450.000000) scale(0.100000,-0.100000)"
fill="#000000" stroke="none">
<path d="M4430 3913 c-8 -4 -21 -12 -28 -20 -8 -7 -22 -11 -33 -8 -12 4 -30
-5 -56 -30 -21 -20 -55 -40 -78 -45 -22 -6 -82 -31 -133 -55 -71 -35 -92 -50
-88 -61 3 -9 6 -24 6 -35 0 -11 15 -36 33 -55 l33 -36 55 27 54 27 -110 -111
c-60 -61 -110 -111 -111 -111 0 0 7 24 17 53 34 96 23 146 -46 217 -24 25 -45
54 -47 64 -5 28 -34 44 -55 30 -16 -10 -18 -25 -14 -133 2 -84 0 -121 -8 -121
-7 0 -11 32 -11 97 l0 97 -35 -34 c-19 -18 -36 -32 -38 -29 -2 2 -11 17 -21
32 -10 16 -33 38 -52 49 -19 11 -37 31 -40 44 -8 33 -50 64 -86 64 -32 0 -88
-47 -88 -74 0 -9 -13 -22 -30 -31 l-30 -16 0 34 c0 28 -5 36 -35 50 -19 9 -41
14 -50 11 -9 -4 -15 -1 -15 8 0 8 -16 22 -35 31 -33 16 -37 16 -70 0 -33 -16
-35 -19 -35 -68 l0 -52 -50 -23 c-47 -22 -50 -26 -50 -60 0 -32 4 -39 29 -50
l30 -12 -39 -37 c-58 -55 -59 -73 -10 -212 l42 -120 -22 -24 c-29 -31 -23 -65
18 -90 l33 -20 -6 -100 c-11 -171 -13 -176 -70 -207 -62 -34 -65 -34 -65 0 1
19 10 33 33 47 41 26 48 66 15 91 l-24 18 18 50 c33 95 22 145 -47 216 -24 25
-45 54 -47 64 -5 28 -34 44 -55 30 -16 -10 -18 -27 -16 -135 2 -80 -1 -115 -6
-99 -5 14 -9 59 -10 100 l-1 74 -40 -39 c-22 -22 -45 -56 -51 -75 -9 -29 -21
-41 -62 -63 -29 -15 -65 -30 -82 -33 -16 -4 -70 -27 -118 -51 -66 -33 -87 -48
-83 -59 3 -9 6 -24 6 -35 0 -11 15 -36 33 -55 l33 -36 55 27 54 27 -65 -66
-64 -66 -13 25 c-18 34 -50 50 -69 34 -8 -6 -14 -18 -14 -25 0 -8 -4 -14 -10
-14 -5 0 -10 15 -10 34 0 38 -14 46 -90 46 -76 0 -90 -8 -90 -46 0 -39 -11
-44 -25 -12 -14 32 -31 33 -60 4 -23 -23 -25 -32 -25 -116 0 -100 9 -118 76
-146 33 -14 34 -16 33 -67 -2 -96 7 -88 -244 -216 l-230 -116 0 -50 0 -50
1390 -697 c765 -383 1401 -697 1415 -697 14 0 651 314 1415 697 l1390 697 0
50 0 50 -230 116 c-251 128 -242 120 -244 216 -1 51 0 53 33 67 67 28 76 46
76 146 0 84 -2 93 -25 116 -29 29 -46 28 -60 -4 -14 -32 -25 -27 -25 13 0 19
-4 35 -9 35 -4 0 -6 -19 -4 -41 4 -28 1 -44 -8 -50 -11 -7 -10 -9 4 -9 9 0 17
5 17 10 0 6 5 10 10 10 6 0 10 -9 10 -19 0 -11 6 -22 13 -24 10 -4 10 -6 0 -6
-8 -1 -13 -16 -13 -41 0 -47 -15 -53 -23 -10 -7 31 -24 42 -24 15 0 -8 4 -15
9 -15 4 0 8 -16 8 -35 0 -39 -1 -39 34 -25 21 8 26 16 26 44 0 25 6 38 25 50
l25 16 0 -59 c0 -71 -18 -93 -90 -116 -25 -7 -40 -14 -34 -14 7 -1 13 -31 17
-73 6 -79 32 -161 66 -204 24 -31 27 -76 6 -94 -8 -6 -34 -18 -57 -25 -34 -11
-38 -14 -18 -15 l25 -2 -25 -8 c-21 -7 -21 -8 -5 -9 21 -1 105 34 105 43 0 3
-8 3 -17 -1 -17 -6 -17 -5 -2 13 28 33 31 69 7 90 -22 20 -63 102 -55 110 3 3
99 -42 213 -100 l209 -105 -120 0 c-114 -1 -123 1 -172 28 -58 32 -59 32 -54
-39 3 -38 -19 -60 -79 -81 -30 -10 -46 -19 -35 -19 12 -1 -7 -15 -48 -36 l-67
-34 -40 20 c-25 13 -40 27 -40 39 0 10 -9 30 -20 44 -25 32 -25 32 9 47 16 6
41 24 55 39 27 28 27 28 16 112 -15 124 -13 165 16 279 25 98 25 107 13 178
-8 42 -21 84 -30 95 -16 20 -17 20 -102 -25 -47 -26 -101 -49 -119 -53 -18 -4
-53 -17 -76 -29 l-44 -21 -19 24 c-10 13 -19 20 -19 15 0 -4 7 -15 16 -25 15
-16 14 -19 -15 -33 -25 -14 -34 -14 -51 -4 -11 7 -20 16 -20 20 0 12 -51 68
-62 68 -6 0 1 -9 15 -20 32 -26 51 -81 42 -127 l-6 -35 -32 28 -32 29 32 -35
c61 -67 66 -116 25 -235 -21 -58 -35 -83 -53 -92 -15 -8 -18 -13 -8 -13 18 0
49 30 49 48 0 18 20 25 35 12 19 -16 19 -54 0 -70 -8 -7 -32 -18 -52 -26 -21
-7 -31 -13 -22 -14 13 0 17 -15 22 -72 6 -79 32 -161 66 -204 24 -31 27 -76 6
-94 -8 -6 -34 -18 -57 -25 -34 -11 -38 -14 -18 -15 l25 -2 -25 -8 c-21 -7 -21
-8 -5 -9 21 -1 105 34 105 43 0 3 -8 3 -17 -1 -17 -6 -17 -5 -2 13 10 10 19
28 21 39 3 11 5 -3 5 -32 0 -29 -5 -60 -11 -69 -7 -8 -37 -24 -66 -35 -30 -10
-46 -19 -35 -19 12 -1 -7 -15 -48 -36 l-67 -34 -40 20 c-25 13 -40 27 -40 39
0 11 -16 38 -35 61 -34 40 -53 98 -40 119 3 6 1 11 -4 11 -6 0 -11 10 -11 23
0 16 12 28 45 46 37 20 45 29 45 52 0 19 -14 44 -45 79 -25 28 -45 56 -45 64
0 7 11 23 25 36 19 17 25 34 25 63 0 24 7 48 17 59 9 10 12 18 6 18 -5 0 -17
6 -27 13 -17 13 -17 17 8 86 14 40 26 76 26 81 0 5 -16 0 -36 -12 -19 -11 -50
-24 -67 -28 -25 -6 -27 -8 -9 -9 13 -1 37 6 53 15 17 8 33 13 36 10 3 -3 -14
-60 -38 -128 -35 -97 -49 -125 -69 -135 -17 -9 -20 -13 -8 -13 16 0 52 38 61
63 6 20 37 -12 37 -38 0 -27 -17 -43 -67 -61 -21 -7 -31 -13 -22 -14 12 0 17
-26 28 -140 13 -154 28 -215 60 -256 24 -31 27 -76 6 -94 -8 -6 -34 -18 -57
-25 -34 -11 -38 -14 -18 -15 l25 -2 -25 -8 c-21 -7 -21 -8 -5 -9 21 -1 105 34
105 43 0 3 -8 3 -17 -1 -17 -6 -17 -5 -2 13 10 10 19 28 21 39 3 11 5 -4 5
-34 1 -64 -16 -86 -82 -103 -25 -7 -45 -16 -45 -20 0 -12 -99 -10 -143 3 -22
6 -41 8 -45 5 -3 -3 -5 -26 -4 -50 0 -58 -12 -74 -78 -97 -30 -10 -46 -19 -35
-19 12 -1 -7 -15 -48 -36 l-67 -34 -40 20 c-25 13 -40 27 -40 39 0 11 -16 38
-35 61 -38 45 -50 78 -42 110 3 13 0 20 -9 20 -8 0 -14 10 -14 24 0 17 7 26
23 30 38 9 77 45 77 70 0 13 -9 35 -20 49 -11 14 -20 36 -20 50 0 13 -9 32
-20 42 -29 26 -25 38 25 95 25 28 45 54 45 59 0 5 -14 14 -31 21 -36 15 -60
64 -48 98 5 13 9 34 9 46 0 13 9 30 20 37 19 14 19 15 -8 90 l-26 77 -63 31
-63 31 -155 -77 -155 -78 86 -43 c47 -24 87 -42 88 -40 35 76 71 103 134 103
38 0 53 -6 79 -29 39 -35 57 -85 48 -133 l-6 -35 -32 28 -32 29 32 -35 c61
-67 66 -116 25 -235 -21 -58 -35 -83 -53 -92 -15 -8 -18 -13 -8 -13 18 0 49
30 49 48 0 18 20 25 35 12 19 -16 19 -54 0 -70 -8 -7 -32 -18 -52 -26 -21 -7
-31 -13 -22 -14 13 0 17 -15 22 -72 6 -79 32 -161 66 -204 24 -31 27 -76 6
-94 -8 -6 -34 -18 -57 -25 -34 -11 -38 -14 -18 -15 l25 -2 -25 -8 c-21 -7 -21
-8 -5 -9 21 -1 105 34 105 43 0 3 -8 3 -17 -1 -17 -6 -17 -5 -2 13 10 10 19
28 21 39 3 11 5 -4 5 -34 1 -64 -16 -86 -82 -103 -25 -7 -45 -16 -45 -20 0
-12 -99 -10 -143 3 -22 6 -41 8 -45 5 -3 -3 -5 -27 -4 -52 0 -57 -18 -77 -89
-98 -99 -30 -207 -15 -254 34 -21 22 -28 40 -30 77 -2 26 -1 39 2 28 3 -11 12
-29 22 -39 15 -18 15 -19 -4 -13 -20 7 -20 7 0 -8 29 -23 112 -45 165 -45 53
0 136 22 165 45 20 15 20 15 0 8 -19 -6 -19 -5 -4 13 25 29 31 70 14 84 -22
18 -19 26 14 40 16 6 41 24 55 39 27 28 27 28 16 112 -15 124 -13 165 16 279
25 98 25 107 13 178 -8 42 -21 84 -29 95 -16 19 -17 19 -58 -2 -36 -18 -42
-19 -42 -6 0 9 -5 13 -10 10 -6 -3 -15 6 -21 22 -11 29 -47 73 -60 73 -4 0 5
-13 21 -28 16 -16 32 -46 35 -66 9 -43 -6 -59 -70 -76 -22 -6 -62 -20 -88 -32
l-49 -22 -29 33 c-17 20 -29 45 -29 62 0 26 -8 33 -90 74 l-90 45 -155 -77
-155 -78 86 -43 c47 -24 87 -42 88 -40 35 76 70 103 136 103 42 0 52 -4 83
-36 21 -21 38 -51 42 -72 8 -41 -8 -97 -34 -121 -14 -13 -17 -26 -14 -58 4
-27 1 -43 -8 -49 -11 -7 -10 -9 4 -9 9 0 17 5 17 10 0 6 5 10 10 10 6 0 10 -9
10 -19 0 -11 6 -22 13 -24 10 -4 10 -6 0 -6 -8 -1 -13 -16 -13 -41 0 -47 -15
-53 -23 -10 -7 31 -24 42 -24 15 0 -8 4 -15 9 -15 4 0 8 -16 8 -35 0 -39 -1
-39 34 -25 21 8 26 16 26 44 0 25 6 38 25 50 l25 16 0 -59 c0 -71 -18 -93 -90
-116 -25 -7 -40 -14 -34 -14 7 -1 13 -31 17 -74 6 -78 32 -160 66 -203 24 -31
27 -76 6 -94 -8 -6 -34 -18 -57 -25 -34 -11 -38 -14 -18 -15 l25 -2 -25 -8
c-21 -7 -21 -8 -5 -9 21 -1 105 34 105 43 0 3 -8 3 -17 -1 -17 -6 -17 -5 -2
13 10 10 19 28 21 39 3 11 5 -4 5 -34 1 -64 -16 -86 -82 -103 -25 -7 -45 -16
-45 -20 0 -14 -104 -9 -159 8 -66 19 -101 52 -101 94 l0 30 -40 -20 -40 -20
-165 82 -165 83 45 23 c25 12 45 29 45 37 0 8 20 37 45 65 25 28 45 54 45 58
0 4 -47 31 -105 60 l-105 52 -140 -70 -140 -70 -165 82 -165 83 140 70 140 70
-155 78 -155 77 -140 -70 -140 -70 -165 83 -165 82 140 70 140 70 -55 27 c-40
21 -55 34 -55 49 0 16 4 19 18 14 41 -17 140 -17 196 -1 73 22 106 53 106 101
l0 35 60 -30 60 -30 156 78 156 78 -51 24 c-39 18 -51 29 -51 46 0 21 3 22 32
13 79 -22 209 2 254 46 16 16 24 36 24 60 l0 35 60 -30 60 -30 155 77 155 78
-55 28 c-40 20 -55 33 -55 48 0 16 4 19 18 14 41 -17 140 -17 196 -1 73 22
106 53 106 101 l0 35 60 -30 60 -30 155 77 155 78 -55 28 c-40 20 -55 33 -55
48 0 16 4 19 18 14 41 -17 140 -17 196 -1 73 21 106 53 106 101 l0 35 215
-107 c118 -59 212 -109 211 -111 -2 -2 -72 31 -155 72 l-151 76 -155 -78 -155
-77 155 -78 155 -77 160 80 160 80 150 -75 c82 -41 158 -75 167 -74 10 0 -154
86 -364 192 -347 175 -385 196 -426 242 -48 55 -67 85 -67 109 0 11 164 -66
561 -265 309 -154 563 -279 565 -277 1 2 -253 132 -567 288 -379 190 -569 290
-569 300 1 8 15 24 33 35 42 27 48 65 13 93 -25 19 -25 20 -9 60 42 108 -56
217 -166 183 -71 -21 -119 -108 -94 -170 6 -14 13 -33 17 -41 7 -18 -36 -53
-56 -44 -29 12 -58 75 -58 125 0 46 2 50 34 63 67 28 76 46 76 146 0 84 -2 93
-25 116 -29 29 -46 28 -60 -4 -14 -32 -25 -27 -25 12 0 26 -5 35 -22 40 -28 7
-118 6 -138 -1z m-1 -37 c-10 -9 -109 -56 -109 -51 0 6 91 54 104 55 5 0 7 -2
5 -4z m208 -73 c-3 -10 -5 -2 -5 17 0 19 2 27 5 18 2 -10 2 -26 0 -35z m-327
13 c0 -2 3 -13 6 -23 5 -14 4 -15 -4 -4 -8 12 -14 10 -34 -11 -16 -18 -45 -31
-93 -42 -155 -37 -144 -31 -134 -74 4 -20 18 -45 30 -54 11 -10 17 -18 12 -18
-18 0 -45 38 -53 74 -10 45 -9 45 124 77 86 21 102 28 115 51 14 24 31 37 31
24z m-1133 -68 c-2 -13 -4 -3 -4 22 0 25 2 35 4 23 2 -13 2 -33 0 -45z m402
53 c10 -6 1 -8 -25 -4 -31 4 -45 1 -58 -13 -14 -13 -17 -27 -13 -58 4 -26 2
-35 -4 -25 -15 24 -10 68 11 89 21 21 65 26 89 11z m-34 -47 c0 -23 -40 -27
-41 -4 -1 23 4 28 24 26 9 -2 17 -11 17 -22z m315 -14 c0 -5 -4 -10 -10 -10
-5 0 -10 5 -10 10 0 6 5 10 10 10 6 0 10 -4 10 -10z m-501 -75 c-16 -26 -19
-44 -15 -69 l7 -34 -31 11 c-26 10 -30 17 -30 47 0 32 4 38 43 57 23 12 43 22
44 22 1 1 -7 -15 -18 -34z m423 -17 c-50 -54 -53 -110 -12 -227 17 -47 26 -81
21 -75 -15 16 -61 161 -61 193 0 16 5 42 11 58 10 26 47 73 57 73 3 0 -4 -10
-16 -22z m-705 -25 c-3 -10 -5 -4 -5 12 0 17 2 24 5 18 2 -7 2 -21 0 -30z
m1788 27 c14 -6 8 -7 -21 -4 -61 9 -109 -15 -124 -61 -7 -20 -10 -54 -6 -74 4
-25 2 -31 -4 -21 -14 22 -12 66 5 106 21 52 95 78 150 54z m-1498 -57 c-3 -10
-5 -2 -5 17 0 19 2 27 5 18 2 -10 2 -26 0 -35z m60 -27 c0 -8 -8 -11 -20 -8
-17 4 -19 1 -14 -17 3 -13 3 -20 -1 -16 -4 4 -7 26 -7 51 l-1 43 22 -20 c11
-10 21 -25 21 -33z m793 51 c0 -1 -53 -54 -117 -117 l-118 -115 115 118 c107
109 120 122 120 114z m593 -15 c17 -15 17 -33 -1 -55 -15 -17 -33 -17 -55 1
-17 15 -17 33 1 55 15 17 33 17 55 -1z m-1023 -68 c0 -48 -4 -73 -10 -69 -6 4
-8 10 -5 15 3 5 2 11 -3 14 -7 4 -9 76 -2 84 1 1 4 7 5 12 1 6 3 12 4 15 0 3
3 5 6 5 3 0 5 -34 5 -76z m-613 -6 c-2 -13 -4 -3 -4 22 0 25 2 35 4 23 2 -13
2 -33 0 -45z m258 4 c6 -4 10 -14 10 -22 -1 -8 1 -19 4 -25 3 -5 6 -17 6 -25
0 -8 4 -22 10 -30 8 -13 7 -13 -8 -1 -10 8 -15 16 -12 19 3 3 -2 14 -12 24 -9
10 -13 18 -9 18 4 0 4 6 -1 13 -18 28 -11 46 12 29z m295 -80 c15 -47 15 -49
-7 -66 -13 -9 -23 -27 -23 -39 l0 -21 -21 21 -22 21 23 66 c13 36 26 66 29 66
3 0 13 -22 21 -48z m815 38 c14 -6 8 -7 -21 -4 -61 9 -109 -15 -124 -61 -7
-20 -10 -54 -6 -74 4 -25 2 -31 -4 -21 -14 22 -12 66 5 106 21 52 95 78 150
54z m-1498 -57 c-3 -10 -5 -2 -5 17 0 19 2 27 5 18 2 -10 2 -26 0 -35z m60
-27 c0 -8 -8 -11 -19 -8 -10 2 -18 0 -18 -6 0 -5 20 -64 44 -131 24 -66 40
-119 36 -116 -16 10 -84 223 -85 267 l-1 48 21 -20 c12 -11 22 -26 22 -34z
m1386 36 c17 -15 17 -33 -1 -55 -15 -17 -33 -17 -55 1 -17 15 -17 33 1 55 15
17 33 17 55 -1z m-1037 -81 c12 -35 18 -59 13 -54 -10 10 -49 121 -48 137 1
12 1 11 35 -83z m1206 14 c2 -11 18 -29 35 -40 32 -20 41 -47 25 -72 -6 -9
-19 1 -45 32 -28 33 -37 53 -37 81 0 39 15 38 22 -1z m-1242 1 c0 -7 -9 -21
-19 -30 -19 -18 -19 -17 -9 18 10 33 28 41 28 12z m-305 -4 c6 -4 10 -14 10
-22 -1 -8 1 -19 4 -25 3 -5 6 -17 6 -25 0 -8 4 -22 10 -30 8 -13 7 -13 -8 -1
-10 8 -15 16 -12 19 3 3 -2 14 -12 24 -9 10 -13 18 -9 18 4 0 4 6 -1 13 -18
28 -11 46 12 29z m1605 -33 c0 -6 -4 -7 -10 -4 -5 3 -10 11 -10 16 0 6 5 7 10
4 6 -3 10 -11 10 -16z m-495 -9 c14 -6 8 -7 -21 -4 -61 9 -109 -15 -124 -61
-7 -20 -10 -54 -6 -74 4 -25 2 -31 -4 -21 -14 22 -12 66 5 106 21 52 95 78
150 54z m-499 -15 c-4 -10 3 -20 19 -27 22 -10 25 -18 25 -64 0 -66 -29 -114
-86 -142 l-41 -21 -7 46 c-3 25 -6 64 -6 87 1 35 5 44 33 61 18 11 33 30 35
43 2 12 8 20 13 17 5 -4 9 -1 9 4 0 6 3 11 6 11 3 0 3 -7 0 -15z m34 -16 c0
-6 -4 -7 -10 -4 -5 3 -10 11 -10 16 0 6 5 7 10 4 6 -3 10 -11 10 -16z m-340
-47 c34 -20 37 -39 21 -178 -12 -104 -24 -126 -76 -152 l-42 -21 -7 46 c-3 25
-6 64 -6 87 1 35 5 44 33 61 40 25 46 59 17 90 -22 23 -22 24 -5 76 16 47 19
51 26 31 5 -13 22 -30 39 -40z m1330 -1 c-6 -22 -26 -59 -46 -82 -28 -34 -35
-50 -32 -75 2 -18 0 -30 -4 -28 -20 12 -6 64 27 104 31 37 53 89 56 130 0 9 2
10 5 3 3 -6 0 -30 -6 -52z m-577 31 c17 -15 17 -33 -1 -55 -15 -17 -33 -17
-55 1 -17 15 -17 33 1 55 15 17 33 17 55 -1z m-733 -23 c0 -6 -4 -7 -10 -4 -5
3 -10 11 -10 16 0 6 5 7 10 4 6 -3 10 -11 10 -16z m545 9 c14 -6 25 -14 25
-18 0 -6 -44 -30 -55 -30 -3 0 -5 14 -5 30 0 34 0 34 35 18z m-1085 -8 c0 -5
-4 -10 -10 -10 -5 0 -10 5 -10 10 0 6 5 10 10 10 6 0 10 -4 10 -10z m897 -57
c-2 -16 -4 -5 -4 22 0 28 2 40 4 28 2 -13 2 -35 0 -50z m243 5 c0 -21 -9 -41
-26 -59 l-27 -28 -18 24 c-28 35 -24 59 14 78 48 23 57 21 57 -15z m-565 -88
c-4 -55 -10 -102 -14 -104 -3 -2 -2 45 3 105 5 60 11 107 14 105 2 -3 1 -50
-3 -106z m918 48 c-6 -7 -9 -21 -8 -30 4 -22 -17 -14 -33 13 -8 12 -9 18 -3
14 6 -3 11 0 12 7 0 10 2 10 6 0 7 -19 23 -4 16 16 -5 14 -3 15 7 5 9 -9 10
-16 3 -25z m382 15 c-2 -10 -4 -19 -5 -20 -2 -2 -3 -22 -4 -45 -1 -36 -4 -42
-24 -43 -30 -2 -54 36 -31 51 5 3 7 9 4 14 -4 7 49 60 60 60 2 0 2 -8 0 -17z
m-1959 -24 c-14 -17 -26 -37 -26 -44 0 -8 -4 -17 -10 -20 -17 -10 9 48 32 73
31 33 34 27 4 -9z m1089 11 c14 -6 8 -7 -21 -4 -61 9 -109 -15 -124 -61 -7
-20 -10 -54 -6 -74 4 -25 2 -31 -4 -21 -14 22 -12 66 5 106 21 52 95 78 150
54z m131 -46 c-6 -19 -12 -28 -14 -20 -3 13 14 56 22 56 2 0 -2 -16 -8 -36z
m394 -33 c-6 -22 -26 -59 -46 -82 -28 -34 -35 -50 -32 -75 2 -18 0 -30 -4 -28
-20 12 -6 64 27 104 31 37 53 89 56 130 0 9 2 10 5 3 3 -6 0 -30 -6 -52z
m-577 31 c17 -15 17 -33 -1 -55 -15 -17 -33 -17 -55 1 -17 15 -17 33 1 55 15
17 33 17 55 -1z m-1023 -2 c0 -5 -5 -10 -11 -10 -5 0 -7 5 -4 10 3 6 8 10 11
10 2 0 4 -4 4 -10z m290 -21 c0 -6 -4 -7 -10 -4 -5 3 -10 11 -10 16 0 6 5 7
10 4 6 -3 10 -11 10 -16z m-291 -13 c-10 -9 -109 -56 -109 -51 0 6 91 54 104
55 5 0 7 -2 5 -4z m865 -97 c-31 -32 -37 -28 -49 28 -6 29 -3 33 32 51 l38 20
3 -35 c3 -28 -3 -42 -24 -64z m693 69 c-3 -8 -6 -5 -6 6 -1 11 2 17 5 13 3 -3
4 -12 1 -19z m230 0 c-3 -8 -6 -5 -6 6 -1 11 2 17 5 13 3 -3 4 -12 1 -19z
m-1462 -90 c-4 -57 -11 -110 -17 -118 -8 -13 -9 -13 -5 1 3 9 8 62 12 117 4
56 10 102 13 102 2 0 1 -46 -3 -102z m852 50 c-3 -8 -6 -5 -6 6 -1 11 2 17 5
13 3 -3 4 -12 1 -19z m66 -10 c-6 -7 -9 -21 -8 -30 4 -21 -21 -13 -31 10 -13
30 -12 41 2 35 8 -3 14 -9 14 -15 0 -5 4 -7 10 -3 5 3 6 13 3 23 -5 14 -3 15
7 5 9 -9 10 -16 3 -25z m382 15 c-2 -10 -4 -19 -5 -20 -2 -2 -3 -22 -4 -45 -1
-36 -4 -42 -24 -43 -30 -2 -54 36 -31 51 5 3 7 9 4 14 -4 7 49 60 60 60 2 0 2
-8 0 -17z m192 -5 c-3 -8 -6 -5 -6 6 -1 11 2 17 5 13 3 -3 4 -12 1 -19z
m-1937 8 c0 -2 3 -13 6 -23 5 -14 4 -15 -4 -4 -8 12 -14 10 -34 -11 -16 -18
-45 -31 -93 -42 -155 -37 -144 -31 -134 -74 4 -20 18 -45 30 -54 11 -10 17
-18 12 -18 -18 0 -45 38 -53 74 -10 45 -9 45 124 77 86 21 102 28 115 51 14
24 31 37 31 24z m1980 -18 c0 -5 4 -7 8 -4 4 2 8 -6 8 -19 0 -38 -32 -14 -42
32 -1 6 4 9 12 6 8 -3 14 -9 14 -15z m-1105 2 c14 -6 8 -7 -21 -4 -61 9 -109
-15 -124 -61 -7 -20 -10 -54 -6 -74 4 -25 2 -31 -4 -21 -14 22 -12 66 5 106
21 52 95 78 150 54z m131 -46 c-6 -19 -12 -28 -14 -20 -3 13 14 56 22 56 2 0
-2 -16 -8 -36z m394 -33 c-6 -22 -26 -59 -46 -82 -28 -34 -35 -50 -32 -75 2
-18 0 -30 -4 -28 -20 12 -6 64 27 104 31 37 53 89 56 130 0 9 2 10 5 3 3 -6 0
-30 -6 -52z m-577 31 c17 -15 17 -33 -1 -55 -15 -17 -33 -17 -55 1 -17 15 -17
33 1 55 15 17 33 17 55 -1z m547 -32 c0 -11 -4 -20 -10 -20 -5 0 -10 9 -10 20
0 11 5 20 10 20 6 0 10 -9 10 -20z m220 0 c0 -11 -4 -20 -10 -20 -5 0 -10 9
-10 20 0 11 5 20 10 20 6 0 10 -9 10 -20z m-921 -96 c-26 -28 -43 -19 -54 28
-6 23 -2 29 32 46 l38 20 3 -35 c2 -26 -3 -42 -19 -59z m308 24 c-3 -8 -6 -5
-6 6 -1 11 2 17 5 13 3 -3 4 -12 1 -19z m66 -10 c-6 -7 -9 -21 -8 -30 4 -21
-21 -13 -31 10 -13 30 -12 41 2 35 8 -3 14 -9 14 -15 0 -5 4 -7 10 -3 5 3 6
13 3 23 -5 14 -3 15 7 5 9 -9 10 -16 3 -25z m382 15 c-2 -10 -4 -19 -5 -20 -2
-2 -3 -22 -4 -45 -1 -36 -4 -42 -24 -43 -30 -2 -54 36 -31 51 5 3 7 9 4 14 -4
7 49 60 60 60 2 0 2 -8 0 -17z m192 -5 c-3 -8 -6 -5 -6 6 -1 11 2 17 5 13 3
-3 4 -12 1 -19z m43 -10 c0 -5 4 -7 8 -4 4 2 8 -6 8 -19 0 -38 -32 -14 -42 32
-1 6 4 9 12 6 8 -3 14 -9 14 -15z m-1095 2 c14 -6 8 -7 -21 -4 -61 9 -109 -15
-124 -61 -7 -20 -10 -54 -6 -74 4 -25 2 -31 -4 -21 -14 22 -12 66 5 106 21 52
95 78 150 54z m121 -46 c-6 -19 -12 -28 -14 -20 -3 13 14 56 22 56 2 0 -2 -16
-8 -36z m-776 23 c0 -1 -37 -38 -82 -82 l-83 -80 80 83 c74 76 85 87 85 79z
m1170 -56 c-6 -22 -26 -59 -46 -82 -28 -34 -35 -50 -32 -75 2 -18 0 -30 -4
-28 -20 12 -6 64 27 104 31 37 53 89 56 130 0 9 2 10 5 3 3 -6 0 -30 -6 -52z
m-567 31 c17 -15 17 -33 -1 -55 -15 -17 -33 -17 -55 1 -17 15 -17 33 1 55 15
17 33 17 55 -1z m-133 -63 c-4 -23 -20 -53 -35 -69 l-28 -29 -18 24 c-32 39
-24 58 34 87 28 15 53 27 53 27 1 1 -2 -17 -6 -40z m3588 14 c5 -10 15 -50 22
-88 12 -66 11 -77 -14 -174 -29 -115 -31 -156 -16 -280 10 -78 10 -85 -9 -105
-12 -12 -51 -37 -89 -55 l-68 -33 -143 72 c-79 39 -145 69 -147 67 -3 -2 9
-10 26 -17 37 -16 35 -29 -11 -52 -25 -14 -29 -18 -14 -19 l20 0 -20 -9 c-13
-6 -15 -9 -5 -9 8 -1 33 10 54 23 37 22 39 23 57 5 10 -10 35 -21 56 -24 21
-3 59 -15 84 -27 43 -19 48 -19 77 -4 30 15 32 15 42 -4 38 -70 -25 -115 -160
-115 -141 0 -202 48 -154 123 l17 27 -30 -27 c-28 -27 -53 -36 -53 -20 0 4 -3
39 -6 77 l-5 70 33 20 c39 24 47 58 22 86 -17 19 -15 23 96 134 101 101 112
115 89 115 -15 0 -43 -12 -64 -26 l-38 -25 -24 24 c-19 19 -49 96 -40 103 16
13 171 83 195 89 19 4 70 27 115 51 45 24 85 44 89 44 4 0 11 -8 16 -17z
m-2931 -15 c-3 -8 -6 -5 -6 6 -1 11 2 17 5 13 3 -3 4 -12 1 -19z m230 0 c-3
-8 -6 -5 -6 6 -1 11 2 17 5 13 3 -3 4 -12 1 -19z m2933 2 c11 -11 20 -29 20
-40 0 -20 -27 -54 -48 -61 -6 -2 -12 -21 -14 -41 -1 -26 -7 -38 -20 -41 -22
-6 -24 8 -3 17 9 3 15 18 15 34 0 16 9 41 20 55 24 31 25 50 3 68 -15 13 -15
12 -3 -7 14 -23 7 -59 -10 -49 -18 11 -9 85 11 85 5 0 18 -9 29 -20z m-4513
-57 c-3 -10 -5 -2 -5 17 0 19 2 27 5 18 2 -10 2 -26 0 -35z m440 25 c-3 -8 -6
-5 -6 6 -1 11 2 17 5 13 3 -3 4 -12 1 -19z m596 -20 c-6 -7 -9 -21 -8 -30 4
-21 -21 -13 -31 10 -13 30 -12 41 2 35 8 -3 14 -9 14 -15 0 -5 4 -7 10 -3 5 3
6 13 3 23 -5 14 -3 15 7 5 9 -9 10 -16 3 -25z m382 15 c-2 -10 -4 -19 -5 -20
-2 -2 -3 -22 -4 -45 -1 -36 -4 -42 -24 -43 -30 -2 -54 36 -31 51 5 3 7 9 4 14
-4 7 49 60 60 60 2 0 2 -8 0 -17z m192 -5 c-3 -8 -6 -5 -6 6 -1 11 2 17 5 13
3 -3 4 -12 1 -19z m43 -10 c0 -5 4 -7 8 -4 4 2 8 -6 8 -19 0 -38 -32 -14 -42
32 -1 6 4 9 12 6 8 -3 14 -9 14 -15z m-1105 2 c14 -6 8 -7 -21 -4 -61 9 -109
-15 -124 -61 -7 -20 -10 -54 -6 -74 4 -25 2 -31 -4 -21 -14 22 -12 66 5 106
21 52 95 78 150 54z m145 -16 c-8 -8 -17 -32 -21 -52 -6 -35 -7 -35 -8 -7 -1
28 22 75 36 75 3 0 0 -7 -7 -16z m380 -63 c-6 -22 -26 -59 -46 -82 -28 -34
-35 -50 -32 -75 2 -18 0 -30 -4 -28 -20 12 -6 64 27 104 31 37 53 89 56 130 0
9 2 10 5 3 3 -6 0 -30 -6 -52z m-577 31 c17 -15 17 -33 -1 -55 -15 -17 -33
-17 -55 1 -17 15 -17 33 1 55 15 17 33 17 55 -1z m-806 -89 c-2 -21 -4 -6 -4
32 0 39 2 55 4 38 2 -18 2 -50 0 -70z m28 40 c-1 -27 14 -55 26 -47 3 2 5 -8
5 -21 -4 -66 -40 -21 -41 51 -1 29 2 51 6 49 3 -3 5 -17 4 -32z m1325 17 c0
-11 -4 -20 -10 -20 -5 0 -10 9 -10 20 0 11 5 20 10 20 6 0 10 -9 10 -20z m220
0 c0 -11 -4 -20 -10 -20 -5 0 -10 9 -10 20 0 11 5 20 10 20 6 0 10 -9 10 -20z
m2596 -23 c0 -7 2 -24 2 -40 1 -15 16 -43 35 -63 l33 -36 52 26 c29 14 52 25
52 23 0 -1 -49 -51 -109 -111 l-109 -108 26 76 c22 64 24 80 14 97 -12 19 -12
19 28 -1 22 -11 40 -16 40 -10 0 5 -19 19 -42 31 -52 26 -59 36 -47 66 5 14 9
36 9 50 0 25 14 25 16 0z m-3209 -49 c-3 -8 -6 -5 -6 6 -1 11 2 17 5 13 3 -3
4 -12 1 -19z m83 1 c0 -6 -4 -7 -10 -4 -5 3 -10 11 -10 16 0 6 5 7 10 4 6 -3
10 -11 10 -16z m365 4 c-2 -10 -4 -19 -5 -20 -2 -2 -3 -22 -4 -45 -1 -36 -4
-42 -24 -43 -30 -2 -54 36 -31 51 5 3 7 9 4 14 -4 7 49 60 60 60 2 0 2 -8 0
-17z m192 -5 c-3 -8 -6 -5 -6 6 -1 11 2 17 5 13 3 -3 4 -12 1 -19z m-597 -10
c0 -5 4 -7 8 -4 4 2 8 -6 8 -19 0 -38 -32 -14 -42 32 -1 6 4 9 12 6 8 -3 14
-9 14 -15z m640 0 c0 -5 4 -7 8 -4 4 2 8 -6 8 -19 0 -38 -32 -14 -42 32 -1 6
4 9 12 6 8 -3 14 -9 14 -15z m-1105 2 c14 -6 8 -7 -21 -4 -61 9 -109 -15 -124
-61 -7 -20 -10 -54 -6 -74 4 -25 2 -31 -4 -21 -14 22 -12 66 5 106 21 52 95
78 150 54z m535 -79 c-6 -22 -26 -59 -46 -82 -28 -34 -35 -50 -32 -75 2 -18 0
-30 -4 -28 -20 12 -6 64 27 104 31 37 53 89 56 130 0 9 2 10 5 3 3 -6 0 -30
-6 -52z m-587 31 c17 -15 17 -33 -1 -55 -15 -17 -33 -17 -55 1 -17 15 -17 33
1 55 15 17 33 17 55 -1z m-163 -17 c41 -21 41 -65 0 -112 -16 -18 -30 -39 -30
-45 0 -29 -19 11 -25 53 l-7 45 41 19 c23 10 39 20 37 22 -2 3 -18 -3 -35 -11
-39 -21 -41 -20 -41 7 0 41 14 46 60 22z m-213 -67 c-6 -84 -27 -147 -64 -200
-18 -26 -24 -46 -21 -67 2 -17 1 -28 -4 -25 -15 10 -8 61 13 88 34 43 60 125
66 204 3 39 8 72 11 72 3 0 2 -33 -1 -72z m914 5 c-9 -16 -10 -14 -11 12 0 21
3 26 11 18 8 -8 8 -16 0 -30z m-318 -35 c-6 -7 -9 -21 -7 -32 2 -16 0 -16 -22
5 -18 17 -21 26 -13 33 8 8 13 7 16 -2 3 -6 9 -10 13 -7 5 3 6 13 3 23 -5 14
-3 15 7 5 9 -9 10 -16 3 -25z m392 15 c-2 -10 -4 -19 -5 -20 -2 -2 -3 -22 -4
-45 -1 -36 -4 -42 -24 -43 -30 -2 -54 36 -31 51 5 3 7 9 4 14 -4 7 49 60 60
60 2 0 2 -8 0 -17z m225 -15 c0 -5 4 -7 8 -4 4 2 8 -6 8 -20 l0 -24 -21 20
c-24 22 -29 51 -8 43 7 -3 13 -9 13 -15z m-966 -10 c-4 -6 -11 -25 -15 -42 -5
-25 -7 -26 -8 -8 -1 23 15 62 25 62 3 0 2 -5 -2 -12z m386 -67 c-6 -22 -26
-59 -46 -82 -28 -34 -35 -50 -32 -75 2 -18 0 -30 -4 -28 -20 12 -6 64 27 104
31 37 53 89 56 130 0 9 2 10 5 3 3 -6 0 -30 -6 -52z m202 4 c-2 -14 -11 -25
-18 -25 -20 0 -17 38 4 43 9 3 18 5 18 6 1 0 -1 -10 -4 -24z m-232 -5 c0 -11
-4 -20 -10 -20 -5 0 -10 9 -10 20 0 11 5 20 10 20 6 0 10 -9 10 -20z m-650 5
c0 -3 -7 -21 -15 -40 -22 -55 -76 -114 -127 -141 -43 -22 -59 -24 -165 -23
l-118 0 205 104 c201 102 220 110 220 100z m3780 -30 c0 -26 -15 -41 -25 -26
-8 14 5 62 16 55 5 -3 9 -16 9 -29z m-3707 -8 c-4 -7 -8 -20 -9 -29 -1 -10 -3
-20 -4 -23 -1 -3 -3 -24 -4 -47 -1 -36 -4 -42 -24 -43 -30 -2 -54 36 -31 51 5
3 7 9 4 14 -3 4 9 20 26 34 17 14 27 26 24 26 -4 0 -2 6 4 13 6 8 7 18 3 22
-4 5 -1 5 6 1 7 -4 9 -13 5 -19z m184 -39 c-3 -7 -5 -2 -5 12 0 14 2 19 5 13
2 -7 2 -19 0 -25z m40 18 c-3 -7 0 -19 6 -25 6 -6 12 -17 13 -25 1 -11 -3 -13
-19 -7 -13 5 -22 17 -22 34 -1 14 2 24 7 21 4 -3 8 0 8 5 0 6 3 11 6 11 3 0 4
-6 1 -14z m33 -17 c0 -6 -4 -7 -10 -4 -5 3 -10 11 -10 16 0 6 5 7 10 4 6 -3
10 -11 10 -16z m375 4 c-2 -10 -4 -19 -5 -20 -2 -2 -3 -22 -4 -45 -1 -36 -4
-42 -24 -43 -30 -2 -54 36 -31 51 5 3 7 9 4 14 -4 7 49 60 60 60 2 0 2 -8 0
-17z m202 -15 c-3 -7 -5 -2 -5 12 0 14 2 19 5 13 2 -7 2 -19 0 -25z m43 0 c0
-5 4 -7 8 -4 4 2 8 -6 8 -19 0 -19 -4 -22 -20 -15 -12 4 -21 17 -21 33 -1 17
2 24 12 20 7 -3 13 -9 13 -15z m-590 -77 c-6 -22 -26 -59 -46 -82 -28 -34 -35
-50 -32 -75 2 -18 0 -30 -4 -28 -20 12 -6 64 27 104 31 37 53 89 56 130 0 9 2
10 5 3 3 -6 0 -30 -6 -52z m-445 -99 c-1 -2 -24 7 -49 20 l-47 22 43 22 43 22
6 -41 c4 -23 5 -43 4 -45z m402 66 c-3 -8 -6 -5 -6 6 -1 11 2 17 5 13 3 -3 4
-12 1 -19z m230 0 c-3 -8 -6 -5 -6 6 -1 11 2 17 5 13 3 -3 4 -12 1 -19z m3587
7 c-6 -14 -35 -35 -49 -35 -5 0 46 49 52 50 1 0 0 -7 -3 -15z m743 -31 c-1 -1
-26 -14 -55 -28 -48 -24 -52 -25 -43 -7 6 11 11 33 11 50 l0 31 45 -22 c24
-12 44 -23 42 -24z m-1105 -32 c37 -44 36 -89 -4 -111 -15 -9 -29 -13 -32 -10
-3 2 -8 47 -11 99 -5 77 -4 91 6 75 7 -11 25 -35 41 -53z m464 21 c-6 -6 -66
19 -66 28 0 5 16 1 35 -8 19 -9 33 -18 31 -20z m-4392 -10 c30 -15 52 -31 49
-36 -3 -5 4 -4 16 2 13 7 22 22 22 39 2 24 2 25 6 4 3 -13 0 -29 -6 -36 -8 -9
-2 -17 25 -29 19 -10 40 -14 46 -11 6 4 8 3 5 -2 -3 -6 523 -274 1169 -597
l1174 -587 0 -60 0 -60 -1392 696 c-766 383 -1395 698 -1397 700 -2 2 48 4
112 4 106 0 121 -2 171 -27z m541 10 c-2 -10 -4 -19 -5 -20 -2 -2 -3 -22 -4
-45 -1 -36 -4 -42 -24 -43 -30 -2 -54 36 -31 51 5 3 7 9 4 14 -4 7 49 60 60
60 2 0 2 -8 0 -17z m192 -5 c-3 -8 -6 -5 -6 6 -1 11 2 17 5 13 3 -3 4 -12 1
-19z m4153 12 c-8 -5 -22 -9 -30 -9 -10 0 -8 3 5 9 27 12 43 12 25 0z m-970
-685 c-762 -382 -1388 -694 -1392 -694 -5 -1 -8 25 -8 57 l0 57 209 105 c116
57 207 108 204 114 -3 5 -1 6 5 2 14 -9 642 305 635 318 -3 5 -1 6 5 2 14 -9
642 305 635 318 -3 5 -1 6 5 2 14 -9 642 305 635 318 -3 5 -1 6 5 2 6 -4 55
16 109 43 l98 50 120 0 120 0 -1385 -694z m-3780 663 c0 -5 4 -7 8 -4 4 2 8
-6 8 -19 0 -19 -4 -22 -20 -15 -12 4 -21 17 -21 33 -1 17 2 24 12 20 7 -3 13
-9 13 -15z m640 0 c0 -5 4 -7 8 -4 4 2 8 -6 8 -19 0 -38 -32 -14 -42 32 -1 6
4 9 12 6 8 -3 14 -9 14 -15z m-390 -78 c0 -13 -14 -27 -40 -40 l-40 -20 -67
34 -68 34 65 -5 c36 -3 81 -1 100 5 49 14 50 14 50 -8z m3586 -14 c-7 -27 -58
-61 -79 -52 -7 2 -5 5 4 5 26 1 69 41 69 63 0 12 3 19 6 15 4 -3 4 -17 0 -31z
m251 12 c-3 -8 -6 -5 -6 6 -1 11 2 17 5 13 3 -3 4 -12 1 -19z m41 -31 c20 -23
104 -47 162 -47 58 0 142 24 162 47 9 10 18 27 20 38 3 11 5 -4 5 -34 1 -65
-15 -84 -88 -105 -99 -30 -207 -15 -254 34 -21 22 -28 40 -30 77 -2 26 -1 39
2 28 3 -11 12 -28 21 -38z m-1180 16 c5 -10 15 -50 22 -88 12 -66 11 -77 -14
-174 -29 -115 -31 -156 -16 -280 10 -78 10 -85 -9 -105 -12 -12 -51 -37 -89
-55 l-68 -33 -135 67 c-74 37 -136 69 -139 72 -3 2 4 9 14 15 46 26 56 46 56
115 l0 68 77 77 c70 71 75 78 52 78 -15 0 -43 -12 -64 -26 l-38 -25 -24 24
c-19 19 -49 96 -40 103 16 13 171 83 195 89 19 4 70 27 115 51 45 24 85 44 89
44 4 0 11 -8 16 -17z m-2671 -70 c-3 -10 -5 -4 -5 12 0 17 2 24 5 18 2 -7 2
-21 0 -30z m43 5 c0 -5 4 -7 8 -4 4 2 8 -6 8 -19 0 -19 -4 -22 -20 -15 -12 4
-21 17 -21 33 -1 17 2 24 12 20 7 -3 13 -9 13 -15z m2275 -48 c3 -5 -13 -19
-35 -30 -29 -15 -40 -26 -36 -36 3 -9 6 -24 6 -35 0 -11 15 -36 33 -55 l33
-36 52 26 c29 14 52 25 52 23 0 -1 -30 -32 -66 -67 -64 -63 -66 -64 -61 -34 5
28 2 33 -21 43 -15 7 -37 20 -49 30 -22 18 -22 21 -8 55 8 19 15 47 15 60 0
19 9 30 38 45 45 24 40 23 47 11z m1662 -86 c-1 -1 -26 -14 -55 -28 -48 -24
-52 -25 -43 -7 6 11 11 33 11 50 l0 31 45 -22 c24 -12 44 -23 42 -24z m-147
-4 c-8 -5 -22 -9 -30 -9 -10 0 -8 3 5 9 27 12 43 12 25 0z m-934 -64 c10 -40
1 -60 -36 -78 -19 -10 -28 -18 -19 -18 24 0 67 37 72 63 4 20 4 20 6 1 2 -28
-18 -51 -60 -68 l-36 -15 -2 52 c-1 47 1 54 26 69 38 22 42 22 49 -6z m-682
-19 c16 -12 16 -14 2 -26 -9 -8 -16 -20 -16 -27 0 -8 -4 -14 -10 -14 -5 0 -10
18 -10 40 0 43 6 48 34 27z m46 -47 c11 -11 20 -29 20 -40 0 -20 -27 -54 -48
-61 -6 -2 -12 -21 -14 -41 -1 -26 -7 -38 -20 -41 -22 -6 -24 8 -3 17 9 3 15
18 15 34 0 16 9 41 20 55 24 31 25 50 3 68 -15 13 -15 12 -3 -7 14 -23 7 -59
-10 -49 -18 11 -9 85 11 85 5 0 18 -9 29 -20z m1250 -30 c-8 -5 -22 -9 -30 -9
-10 0 -8 3 5 9 27 12 43 12 25 0z m-173 -156 c-1 -1 -26 -14 -55 -28 -48 -24
-52 -25 -43 -7 6 11 11 33 11 50 l0 31 45 -22 c24 -12 44 -23 42 -24z m-1080
-118 c-2 -6 -19 -19 -38 -28 -25 -14 -29 -18 -14 -19 l20 0 -20 -9 c-13 -6
-15 -9 -5 -9 8 -1 33 10 54 23 37 22 39 23 57 5 10 -10 35 -21 56 -24 21 -3
59 -15 84 -27 43 -19 48 -19 77 -4 30 15 32 15 42 -4 38 -70 -25 -115 -160
-115 -141 0 -202 48 -154 123 l17 27 -30 -27 c-31 -30 -53 -36 -53 -15 0 6 -3
36 -6 64 -9 77 -3 87 41 66 19 -9 34 -22 32 -27z m17 -11 c-6 -14 -35 -35 -49
-35 -5 0 46 49 52 50 1 0 0 -7 -3 -15z m102 -42 c-6 -6 -66 19 -66 28 0 5 16
1 35 -8 19 -9 33 -18 31 -20z m494 7 c-8 -5 -22 -9 -30 -9 -10 0 -8 3 5 9 27
12 43 12 25 0z m-173 -156 c-1 -1 -26 -14 -55 -28 -48 -24 -52 -25 -43 -7 6
11 11 33 11 50 l0 31 45 -22 c24 -12 44 -23 42 -24z m-383 -9 c62 -19 129 -19
191 0 27 8 51 12 53 10 2 -2 -22 -11 -54 -21 -66 -19 -159 -15 -214 9 -45 20
-37 21 24 2z m108 -90 l78 0 -65 -33 -65 -32 -40 20 c-27 14 -40 27 -40 40 0
17 4 19 28 13 15 -5 62 -8 104 -8z m-192 -65 c-8 -5 -22 -9 -30 -9 -10 0 -8 3
5 9 27 12 43 12 25 0z"/>
<path d="M4759 3593 c-13 -16 -12 -17 4 -4 16 13 21 21 13 21 -2 0 -10 -8 -17
-17z"/>
<path d="M4790 3606 c0 -2 8 -10 18 -17 15 -13 16 -12 3 4 -13 16 -21 21 -21
13z"/>
<path d="M4750 3566 c0 -2 8 -10 18 -17 15 -13 16 -12 3 4 -13 16 -21 21 -21
13z"/>
<path d="M4799 3553 c-13 -16 -12 -17 4 -4 16 13 21 21 13 21 -2 0 -10 -8 -17
-17z"/>
<path d="M4439 3433 c-13 -16 -12 -17 4 -4 16 13 21 21 13 21 -2 0 -10 -8 -17
-17z"/>
<path d="M4470 3446 c0 -2 8 -10 18 -17 15 -13 16 -12 3 4 -13 16 -21 21 -21
13z"/>
<path d="M4430 3406 c0 -2 8 -10 18 -17 15 -13 16 -12 3 4 -13 16 -21 21 -21
13z"/>
<path d="M4479 3393 c-13 -16 -12 -17 4 -4 16 13 21 21 13 21 -2 0 -10 -8 -17
-17z"/>
<path d="M4119 3273 c-13 -16 -12 -17 4 -4 9 7 17 15 17 17 0 8 -8 3 -21 -13z"/>
<path d="M4150 3286 c0 -2 8 -10 18 -17 15 -13 16 -12 3 4 -13 16 -21 21 -21
13z"/>
<path d="M4110 3246 c0 -2 8 -10 18 -17 15 -13 16 -12 3 4 -13 16 -21 21 -21
13z"/>
<path d="M4159 3233 c-13 -16 -12 -17 4 -4 9 7 17 15 17 17 0 8 -8 3 -21 -13z"/>
<path d="M4734 3158 l-19 -21 28 18 c28 18 33 25 19 25 -5 0 -17 -10 -28 -22z"/>
<path d="M3799 3113 c-13 -16 -12 -17 4 -4 16 13 21 21 13 21 -2 0 -10 -8 -17
-17z"/>
<path d="M3830 3126 c0 -2 8 -10 18 -17 15 -13 16 -12 3 4 -13 16 -21 21 -21
13z"/>
<path d="M3790 3086 c0 -2 8 -10 18 -17 15 -13 16 -12 3 4 -13 16 -21 21 -21
13z"/>
<path d="M3839 3073 c-13 -16 -12 -17 4 -4 16 13 21 21 13 21 -2 0 -10 -8 -17
-17z"/>
<path d="M4414 2998 l-19 -21 28 18 c28 18 33 25 19 25 -5 0 -17 -10 -28 -22z"/>
<path d="M3479 2953 c-13 -16 -12 -17 4 -4 16 13 21 21 13 21 -2 0 -10 -8 -17
-17z"/>
<path d="M3510 2966 c0 -2 8 -10 18 -17 15 -13 16 -12 3 4 -13 16 -21 21 -21
13z"/>
<path d="M3470 2926 c0 -2 8 -10 18 -17 15 -13 16 -12 3 4 -13 16 -21 21 -21
13z"/>
<path d="M3519 2913 c-13 -16 -12 -17 4 -4 16 13 21 21 13 21 -2 0 -10 -8 -17
-17z"/>
<path d="M4094 2838 l-19 -21 28 18 c28 18 33 25 19 25 -5 0 -17 -10 -28 -22z"/>
<path d="M3169 2793 c-13 -16 -12 -17 4 -4 9 7 17 15 17 17 0 8 -8 3 -21 -13z"/>
<path d="M3200 2806 c0 -2 8 -10 18 -17 15 -13 16 -12 3 4 -13 16 -21 21 -21
13z"/>
<path d="M3160 2766 c0 -2 8 -10 18 -17 15 -13 16 -12 3 4 -13 16 -21 21 -21
13z"/>
<path d="M3209 2753 c-13 -16 -12 -17 4 -4 9 7 17 15 17 17 0 8 -8 3 -21 -13z"/>
<path d="M3774 2678 l-19 -21 28 18 c28 18 33 25 19 25 -5 0 -17 -10 -28 -22z"/>
<path d="M2839 2633 c-13 -16 -12 -17 4 -4 16 13 21 21 13 21 -2 0 -10 -8 -17
-17z"/>
<path d="M2870 2646 c0 -2 8 -10 18 -17 15 -13 16 -12 3 4 -13 16 -21 21 -21
13z"/>
<path d="M2830 2606 c0 -2 8 -10 18 -17 15 -13 16 -12 3 4 -13 16 -21 21 -21
13z"/>
<path d="M2879 2593 c-13 -16 -12 -17 4 -4 16 13 21 21 13 21 -2 0 -10 -8 -17
-17z"/>
<path d="M3454 2518 l-19 -21 28 18 c28 18 33 25 19 25 -5 0 -17 -10 -28 -22z"/>
<path d="M2519 2473 c-13 -16 -12 -17 4 -4 9 7 17 15 17 17 0 8 -8 3 -21 -13z"/>
<path d="M2550 2486 c0 -2 8 -10 18 -17 15 -13 16 -12 3 4 -13 16 -21 21 -21
13z"/>
<path d="M2510 2446 c0 -2 8 -10 18 -17 15 -13 16 -12 3 4 -13 16 -21 21 -21
13z"/>
<path d="M2559 2433 c-13 -16 -12 -17 4 -4 9 7 17 15 17 17 0 8 -8 3 -21 -13z"/>
<path d="M3144 2358 l-19 -21 28 18 c28 18 33 25 19 25 -5 0 -17 -10 -28 -22z"/>
<path d="M2174 2198 l-19 -23 25 20 c14 11 27 21 29 22 2 2 0 3 -6 3 -5 0 -18
-10 -29 -22z"/>
<path d="M2814 2198 l-19 -21 28 18 c28 18 33 25 19 25 -5 0 -17 -10 -28 -22z"/>
<path d="M2494 2038 l-19 -21 28 18 c28 18 33 25 19 25 -5 0 -17 -10 -28 -22z"/>
<path d="M6255 1915 c29 -23 112 -45 165 -45 53 0 136 22 165 45 11 8 -2 5
-30 -7 -71 -32 -199 -32 -270 0 -28 12 -41 15 -30 7z"/>
<path d="M6503 2839 c15 -11 32 -38 38 -60 7 -21 14 -37 17 -35 15 16 -46 116
-71 116 -5 0 2 -9 16 -21z"/>
<path d="M4342 2612 l-152 -77 155 -78 155 -77 155 77 155 78 -152 77 c-84 42
-155 77 -158 77 -3 0 -74 -35 -158 -77z"/>
<path d="M4982 2612 l-152 -77 155 -78 155 -77 85 42 c77 38 102 58 75 58 -5
0 -10 17 -10 39 0 34 4 40 31 52 l32 13 -104 52 c-57 29 -106 53 -109 53 -3 0
-74 -35 -158 -77z"/>
<path d="M5850 2675 c8 -9 15 -24 16 -34 2 -9 10 -20 20 -26 9 -5 30 -21 45
-33 28 -23 29 -23 29 -3 0 14 -14 28 -47 45 -27 14 -44 25 -40 26 4 0 26 -9
48 -21 23 -11 44 -18 47 -15 7 8 6 9 -68 46 -43 22 -60 27 -50 15z"/>
<path d="M5653 2628 c-13 -6 -23 -17 -23 -25 0 -11 5 -11 30 2 47 24 40 46 -7
23z"/>
<path d="M6129 2610 c-3 -15 -13 -27 -29 -31 -19 -5 -20 -7 -5 -7 38 -1 52 11
45 38 l-7 25 -4 -25z"/>
<path d="M5573 2557 c-49 -24 -55 -48 -18 -65 21 -10 25 -9 25 6 0 9 9 32 20
50 11 17 19 32 17 31 -1 0 -21 -10 -44 -22z"/>
<path d="M3702 2292 l-152 -77 155 -78 155 -77 155 77 155 78 -152 77 c-84 42
-155 77 -158 77 -3 0 -74 -35 -158 -77z"/>
<path d="M4342 2292 l-152 -77 155 -78 155 -77 155 77 155 78 -152 77 c-84 42
-155 77 -158 77 -3 0 -74 -35 -158 -77z"/>
<path d="M5605 2284 c-22 -13 -51 -24 -65 -25 -23 -2 -23 -2 -3 -6 12 -2 36 3
53 12 18 9 34 14 37 11 3 -3 -14 -60 -38 -128 -35 -97 -49 -125 -69 -135 -17
-9 -20 -13 -8 -13 16 0 52 38 61 63 6 20 37 -12 37 -38 0 -27 -17 -43 -67 -61
-21 -7 -31 -13 -22 -14 12 0 17 -26 28 -140 13 -154 28 -215 60 -256 24 -31
27 -76 6 -94 -8 -6 -34 -18 -57 -25 -34 -11 -38 -14 -18 -15 l25 -2 -25 -8
c-21 -7 -21 -8 -5 -9 21 -1 105 34 105 43 0 3 -8 3 -17 -1 -17 -6 -17 -5 -2
13 30 35 31 66 3 95 -31 32 -59 115 -41 123 9 3 9 5 0 5 -7 1 -13 12 -13 25 0
17 9 27 29 36 16 6 36 19 44 28 17 20 28 62 17 62 -5 0 -11 -8 -13 -17 -2 -10
-3 -6 -1 8 2 19 -6 35 -32 60 -18 18 -34 41 -34 51 0 10 -4 18 -10 18 -18 0
-11 -17 26 -61 43 -52 44 -95 2 -118 -15 -9 -29 -13 -32 -10 -3 2 -8 45 -12
95 l-7 90 37 27 c37 28 47 62 25 84 -8 8 -8 13 0 17 13 8 15 52 3 60 -5 3 -7
-8 -4 -23 2 -16 -1 -32 -7 -35 -17 -11 -23 17 -12 48 l11 27 42 -21 43 -21
-32 26 c-33 26 -44 67 -23 80 6 4 8 10 5 15 -2 4 0 22 6 39 6 18 10 33 8 35
-2 1 -22 -8 -44 -20z m35 -504 c0 -11 -53 -40 -72 -40 -7 1 1 7 18 14 18 8 35
19 38 25 9 14 16 14 16 1z m-40 -350 c-8 -5 -22 -9 -30 -9 -10 0 -8 3 5 9 27
12 43 12 25 0z"/>
<path d="M5169 2130 c-3 -15 -13 -27 -29 -31 -19 -5 -20 -7 -5 -7 38 -1 52 11
45 38 l-7 25 -4 -25z"/>
<path d="M3062 1972 l-152 -77 155 -78 155 -77 155 77 155 78 -152 77 c-84 42
-155 77 -158 77 -3 0 -74 -35 -158 -77z"/>
<path d="M3702 1972 l-152 -77 155 -78 155 -77 155 77 155 78 -152 77 c-84 42
-155 77 -158 77 -3 0 -74 -35 -158 -77z"/>
<path d="M4264 1718 c14 -13 32 -40 39 -61 12 -36 14 -38 27 -21 9 11 10 15 2
10 -8 -5 -16 2 -23 21 -11 30 -47 73 -61 73 -5 0 2 -10 16 -22z"/>
<path d="M3702 1652 l-152 -77 155 -78 155 -77 108 54 107 53 26 -19 c39 -29
97 -33 143 -9 21 11 43 18 47 15 5 -3 9 7 9 22 l0 27 -20 -26 c-26 -33 -81
-51 -128 -42 -49 9 -112 74 -112 115 0 28 -7 33 -90 75 -49 25 -91 45 -92 44
-2 0 -72 -35 -156 -77z"/>
<path d="M4380 1713 c0 -5 10 -18 23 -29 l22 -19 -20 25 c-11 14 -21 27 -22
29 -2 2 -3 0 -3 -6z"/>
<path d="M4260 1404 c-19 -7 -27 -13 -17 -13 9 -1 17 -7 17 -13 0 -35 24 -91
55 -128 38 -45 46 -89 20 -110 -8 -6 -34 -18 -57 -25 -34 -11 -38 -14 -18 -15
l25 -2 -25 -8 c-21 -7 -22 -8 -4 -9 34 -2 121 47 128 72 13 49 -5 53 -19 5 -6
-17 -17 -34 -25 -36 -13 -4 -12 -2 1 14 33 39 31 68 -6 104 -19 19 -35 42 -35
51 0 10 -4 19 -10 21 -5 2 -12 21 -15 44 -6 35 -4 41 17 51 31 16 11 14 -32
-3z m60 -294 c-8 -5 -22 -9 -30 -9 -10 0 -8 3 5 9 27 12 43 12 25 0z"/>
<path d="M4260 1030 c-20 -6 -21 -8 -5 -8 11 0 29 3 40 8 25 11 -1 11 -35 0z"/>
</g>
</svg>
