<?xml version="1.0" standalone="no"?>
<!DOCTYPE svg PUBLIC "-//W3C//DTD SVG 20010904//EN"
 "http://www.w3.org/TR/2001/REC-SVG-20010904/DTD/svg10.dtd">
<svg version="1.0" xmlns="http://www.w3.org/2000/svg"
 width="820.000000pt" height="720.000000pt" viewBox="0 0 820.000000 720.000000"
 preserveAspectRatio="xMidYMid meet">

<g transform="translate(0.000000,720.000000) scale(0.100000,-0.100000)"
fill="#000000" stroke="none">
<path d="M4205 7057 c-71 -30 -161 -67 -198 -83 l-69 -28 -46 18 c-26 10 -66
21 -90 23 -103 12 -158 -23 -209 -134 -29 -62 -38 -73 -69 -83 -42 -14 -19
-16 -444 45 -192 28 -345 45 -373 42 -56 -5 -111 -44 -138 -98 -9 -18 -27
-101 -39 -184 -12 -82 -22 -151 -24 -152 -2 -2 -330 -53 -705 -108 -134 -20
-254 -40 -266 -45 -40 -15 -84 -61 -101 -106 -16 -41 -16 -54 -3 -147 7 -56
14 -106 14 -111 0 -10 -26 -22 -435 -194 -277 -116 -310 -138 -330 -214 -16
-59 -8 -88 82 -302 44 -105 134 -319 200 -476 132 -315 222 -528 305 -725 31
-71 77 -182 103 -245 53 -127 176 -420 267 -635 33 -77 97 -229 142 -337 l83
-197 -45 -113 c-25 -62 -100 -247 -166 -411 -83 -204 -121 -311 -121 -337 0
-88 50 -146 164 -191 45 -18 86 -37 93 -43 10 -9 9 -32 -3 -106 -21 -129 -16
-198 20 -244 39 -52 87 -72 216 -90 63 -9 124 -19 136 -21 18 -4 23 -20 43
-157 40 -275 46 -295 101 -342 54 -45 92 -49 244 -25 74 11 147 19 161 17 23
-3 32 -16 69 -104 24 -56 52 -117 64 -135 30 -49 83 -74 151 -73 49 1 115 26
520 198 255 108 467 196 472 196 5 0 151 -58 326 -129 777 -315 890 -360 926
-366 50 -10 117 16 155 59 16 19 55 100 92 192 34 87 67 164 71 170 6 7 25 8
56 3 95 -16 175 -10 218 14 66 37 83 82 112 285 14 97 26 178 28 180 1 2 61
12 131 23 162 25 187 33 228 75 58 59 61 91 30 290 -14 95 -24 179 -21 186 2
7 60 37 128 66 161 68 182 81 208 134 41 85 41 85 -148 527 -66 156 -121 292
-121 302 0 10 56 157 124 326 69 170 204 504 301 743 97 239 250 617 340 840
90 223 199 494 243 602 94 230 98 246 82 304 -26 93 -40 100 -670 350 -80 31
-149 61 -153 64 -5 4 1 71 12 148 21 141 20 184 -5 233 -18 35 -66 75 -106 88
-18 5 -242 40 -498 77 -256 36 -466 67 -468 69 -1 1 -13 66 -26 144 -25 151
-46 195 -104 225 -64 32 -68 32 -657 -59 -82 -13 -154 -20 -158 -15 -5 4 -36
72 -70 150 -75 173 -102 202 -195 207 -51 4 -71 -2 -187 -50z m244 -43 c17
-14 31 -30 31 -36 0 -5 22 -62 50 -126 27 -63 48 -117 46 -120 -3 -2 -22 -6
-44 -9 -33 -4 -72 8 -243 77 -112 45 -215 88 -229 95 l-25 14 46 20 c270 121
314 131 368 85z m-270 -243 c201 -82 508 -206 681 -276 173 -70 410 -165 525
-212 609 -247 1088 -440 1515 -612 336 -136 482 -199 498 -217 40 -46 72 44
-363 -1029 -91 -225 -235 -581 -320 -790 -84 -209 -182 -452 -218 -540 -36
-88 -131 -324 -212 -525 -81 -201 -202 -498 -267 -660 -190 -468 -384 -948
-532 -1315 -151 -374 -163 -395 -234 -395 -23 0 -88 21 -163 51 -68 28 -263
107 -434 176 -418 168 -683 276 -905 366 -102 41 -291 118 -420 170 -335 135
-1292 522 -1508 610 -100 41 -191 82 -202 92 -12 11 -20 31 -20 51 0 18 56
171 131 355 264 654 420 1040 527 1304 60 149 205 506 322 795 117 289 280
692 362 895 82 204 219 541 303 750 365 903 416 1028 429 1054 20 38 74 63
115 55 13 -3 189 -72 390 -153z m-1270 -1 c75 -11 241 -35 369 -54 128 -19
235 -35 237 -38 4 -3 -35 -101 -376 -943 -83 -203 -228 -563 -324 -800 -96
-236 -258 -637 -360 -890 -102 -253 -216 -534 -252 -625 -67 -167 -88 -209
-78 -155 3 17 98 671 210 1455 112 784 223 1553 245 1709 23 156 45 292 50
302 19 34 62 59 103 59 21 0 101 -9 176 -20z m2547 -22 c21 -20 28 -45 44
-148 10 -69 17 -127 14 -129 -2 -3 -140 15 -307 38 l-302 43 -140 56 -140 57
40 7 c143 29 688 106 724 103 29 -2 51 -10 67 -27z m444 -408 c394 -56 647
-96 666 -106 57 -29 60 -46 36 -205 -11 -78 -23 -143 -26 -146 -3 -3 -175 63
-383 147 -208 84 -499 202 -648 262 -148 59 -288 117 -310 128 l-40 20 35 -4
c19 -3 321 -46 670 -96z m-3404 -17 c-3 -16 -22 -140 -41 -278 -100 -695 -427
-2968 -435 -3025 -11 -67 -39 -164 -46 -157 -2 2 -13 62 -23 133 -20 128 -28
186 -97 644 -53 358 -82 550 -229 1531 -74 499 -135 921 -135 937 0 35 39 87
73 98 18 6 882 139 925 143 10 1 12 -7 8 -26z m-1032 -535 c3 -18 107 -714
232 -1547 188 -1263 224 -1519 214 -1540 l-12 -26 -13 30 c-7 17 -144 343
-305 725 -161 382 -414 983 -562 1335 -148 352 -272 654 -275 671 -6 37 18 88
50 106 35 19 641 276 653 277 7 1 14 -14 18 -31z m5026 -3593 c134 -318 137
-333 83 -386 -27 -26 -249 -126 -259 -117 -2 3 -22 121 -43 263 l-39 259 48
120 c67 169 72 179 81 164 4 -7 62 -143 129 -303z m-266 -441 c83 -558 78
-511 61 -543 -27 -53 -56 -67 -180 -86 -64 -9 -118 -15 -121 -12 -11 11 96
722 117 777 33 85 72 171 75 167 2 -2 24 -138 48 -303z m-279 -291 c-3 -16
-28 -192 -56 -393 -28 -201 -58 -380 -67 -398 -22 -49 -62 -66 -144 -59 -37 3
-72 9 -78 12 -6 3 -2 25 10 53 258 640 329 812 336 812 2 0 1 -12 -1 -27z
m-3764 -132 c681 -275 774 -313 784 -323 7 -7 0 -8 -20 -4 -16 3 -253 37 -525
76 -272 39 -510 75 -528 81 -55 18 -62 53 -40 206 7 48 17 83 23 83 7 0 144
-53 306 -119z m190 -336 c990 -141 989 -140 1100 -185 57 -24 108 -46 112 -50
5 -5 -4 -11 -20 -14 -92 -19 -1117 -168 -1161 -168 -57 -1 -86 16 -96 55 -6
24 -56 352 -56 367 0 13 -3 13 121 -5z m1455 -329 c23 -18 23 -18 -51 -49 -33
-14 -190 -80 -350 -147 -424 -179 -434 -183 -474 -176 -19 3 -43 13 -52 23
-17 18 -102 213 -96 219 6 7 913 142 958 143 25 0 54 -5 65 -13z"/>
<path d="M3915 6479 c-50 -57 -142 -166 -205 -242 -86 -103 -120 -137 -137
-137 -36 0 -27 -19 20 -39 50 -22 60 -19 45 14 -10 22 -6 30 33 79 24 30 49
55 56 56 7 0 46 -16 88 -35 73 -33 76 -36 71 -62 -3 -16 -8 -46 -12 -68 -10
-69 -14 -77 -35 -72 -10 3 -22 1 -25 -4 -4 -8 93 -59 112 -59 3 0 3 12 0 28
-4 15 14 159 39 321 25 161 45 300 43 309 -2 10 -35 -21 -93 -89z m20 -46
c-22 -124 -35 -210 -35 -235 0 -16 -4 -28 -8 -26 -55 21 -142 65 -142 71 0 10
173 216 182 217 4 0 5 -12 3 -27z"/>
<path d="M3702 5953 c-19 -12 -71 -36 -118 -54 -46 -17 -95 -42 -109 -55 -65
-60 10 -165 96 -135 45 16 47 15 63 -23 29 -70 97 -87 148 -36 27 28 30 35 24
71 -4 23 -18 69 -33 102 -14 34 -28 82 -32 107 l-6 46 -33 -23z"/>
<path d="M3590 5684 c-25 -47 -88 -66 -144 -44 -14 5 -26 6 -26 1 0 -9 241
-121 261 -121 8 0 0 9 -18 21 -43 27 -66 80 -58 130 8 46 4 49 -15 13z"/>
<path d="M4985 4565 c-10 -19 -22 -35 -26 -35 -4 0 -7 -8 -6 -17 0 -10 -12
-44 -27 -76 -24 -52 -36 -64 -114 -114 -131 -85 -287 -155 -492 -223 -325
-108 -504 -189 -599 -272 -32 -28 -34 -29 -51 -11 -9 10 -15 20 -13 23 3 3 11
-4 19 -14 8 -11 14 -15 14 -9 0 7 -4 15 -10 18 -5 3 -10 11 -10 16 0 6 5 7 12
3 7 -5 8 -3 3 6 -6 10 -18 2 -48 -31 -206 -232 -72 -600 249 -683 146 -38 293
-6 441 95 23 16 44 29 47 29 12 0 -63 -136 -112 -205 -27 -38 -67 -88 -88
-110 l-39 -39 39 23 c31 20 40 21 47 10 13 -21 12 -24 -33 -66 -99 -90 -212
-145 -338 -163 -78 -11 -96 -8 -235 37 -58 19 -74 28 -60 33 24 8 17 12 -78
45 l-78 27 -26 -26 c-14 -15 -24 -28 -22 -30 6 -5 300 -141 1259 -582 63 -29
118 -49 121 -46 4 4 10 21 14 39 5 26 3 32 -15 38 -47 15 -202 129 -258 190
-178 194 -206 440 -85 743 l27 66 17 -94 c9 -52 24 -115 33 -140 83 -227 355
-364 577 -290 79 27 123 56 182 119 76 81 101 146 105 269 6 156 -33 307 -148
588 -154 371 -203 591 -180 796 6 50 9 92 7 94 -1 2 -11 -12 -22 -31z m-1570
-1725 c3 -5 2 -10 -4 -10 -5 0 -13 5 -16 10 -3 6 -2 10 4 10 5 0 13 -4 16 -10z
m110 -40 c3 -5 1 -10 -4 -10 -6 0 -11 5 -11 10 0 6 2 10 4 10 3 0 8 -4 11 -10z"/>
<path d="M4929 4493 c-13 -16 -12 -17 4 -4 9 7 17 15 17 17 0 8 -8 3 -21 -13z"/>
<path d="M3590 2789 c0 -5 5 -7 10 -4 6 3 10 8 10 11 0 2 -4 4 -10 4 -5 0 -10
-5 -10 -11z"/>
<path d="M5489 1512 c45 -43 59 -91 40 -137 -11 -27 -13 -28 -16 -8 -12 63
-104 96 -151 53 -36 -34 -36 -60 2 -171 20 -56 36 -118 36 -137 l0 -35 23 20
c29 27 67 45 149 72 114 38 152 111 86 166 -32 27 -61 29 -110 10 -29 -12 -21
12 18 51 36 35 39 36 96 32 32 -2 55 -1 51 3 -8 7 -251 119 -259 119 -3 0 13
-17 35 -38z"/>
<path d="M5187 1124 c-3 -4 -2 -15 4 -25 7 -13 -4 -103 -36 -312 -47 -310 -49
-327 -37 -326 4 0 68 73 142 161 224 268 270 318 291 318 31 0 22 18 -17 35
-52 22 -67 20 -54 -5 15 -28 7 -46 -44 -103 l-43 -49 -82 42 c-77 38 -82 43
-77 68 3 15 8 45 12 67 9 54 21 75 39 69 9 -4 15 0 15 7 0 8 -21 23 -47 34
-26 11 -50 21 -53 23 -4 1 -9 -1 -13 -4z m117 -294 c36 -16 66 -32 66 -35 0
-6 -107 -135 -168 -204 l-23 -26 4 25 c3 14 13 80 23 148 10 67 21 122 25 122
4 0 37 -13 73 -30z"/>
<path d="M2976 6542 c-3 -5 -7 -24 -8 -42 -2 -21 -9 -35 -19 -37 -10 -3 -37
-49 -65 -106 -26 -56 -74 -157 -106 -225 -32 -67 -58 -128 -58 -136 0 -8 -12
-17 -27 -21 -32 -8 -19 -18 35 -28 24 -5 32 -3 32 8 0 8 -4 15 -10 15 -5 0
-10 8 -10 19 0 22 47 128 61 137 6 3 48 0 94 -7 95 -14 86 -3 99 -119 3 -24
10 -46 16 -48 20 -7 -11 -32 -38 -32 -46 0 -10 -18 50 -25 l58 -7 -14 28 c-9
17 -27 152 -45 328 -17 164 -32 301 -35 303 -2 2 -7 0 -10 -5z m-16 -237 c7
-66 16 -132 20 -147 8 -26 7 -28 -18 -28 -46 1 -147 26 -145 36 4 22 123 267
128 263 2 -3 9 -59 15 -124z"/>
<path d="M2760 5850 c0 -5 -12 -10 -28 -10 -15 0 -37 -7 -49 -15 -12 -9 -28
-14 -35 -13 -9 2 -13 -10 -12 -43 0 -35 14 -74 62 -171 34 -69 65 -140 68
-158 l7 -32 25 33 c14 19 67 77 117 129 51 52 99 106 108 120 25 36 22 86 -8
115 -24 24 -52 35 -40 15 4 -6 -7 -10 -25 -10 -23 0 -41 -10 -71 -41 -41 -42
-63 -44 -53 -4 7 27 -18 80 -41 89 -22 8 -25 8 -25 -4z"/>
<path d="M1845 6018 c-2 -7 -13 -121 -25 -253 -30 -339 -35 -374 -56 -389 -24
-18 -6 -24 44 -14 26 6 42 15 42 24 0 8 -7 14 -15 14 -12 0 -15 15 -15 73 0
39 4 77 8 83 6 10 123 35 167 36 11 1 73 -118 74 -141 1 -8 -7 -20 -16 -28
-16 -13 -11 -14 42 -8 72 7 86 18 57 42 -20 17 -130 231 -243 471 -26 56 -50
102 -54 102 -3 0 -7 -6 -10 -12z m83 -264 c35 -70 61 -128 58 -131 -7 -8 -145
-27 -151 -21 -7 7 17 278 25 278 3 0 34 -57 68 -126z"/>
<path d="M1941 5316 c-44 -24 -65 -92 -41 -136 8 -15 5 -19 -25 -24 -44 -9
-85 -60 -85 -105 0 -45 55 -101 100 -101 43 0 83 26 109 69 l21 36 0 -43 c0
-65 -24 -107 -76 -133 -25 -12 -43 -23 -41 -26 8 -7 306 50 301 58 -2 4 -17 7
-33 7 -49 -2 -90 22 -116 67 -34 56 -32 72 5 42 40 -34 80 -41 123 -23 77 32
88 137 20 182 -15 9 -41 14 -66 13 -39 -3 -42 -1 -39 20 3 33 -25 87 -54 100
-33 15 -73 14 -103 -3z"/>
<path d="M1037 5518 c2 -24 7 -113 13 -198 6 -85 14 -198 17 -250 3 -52 10
-103 15 -113 7 -14 4 -22 -14 -37 -31 -25 -19 -33 27 -17 40 14 59 37 31 37
-8 0 -20 8 -25 18 -13 24 -17 140 -5 151 5 4 38 18 74 31 36 12 70 25 77 27 6
3 34 -28 63 -69 47 -66 50 -74 34 -85 -30 -22 -7 -26 43 -7 26 10 50 19 52 20
2 2 -8 13 -23 26 -14 13 -101 131 -194 262 -92 132 -172 241 -178 243 -5 2 -8
-16 -7 -39z m104 -180 c39 -57 81 -113 92 -125 16 -18 17 -24 6 -28 -59 -21
-134 -45 -144 -45 -8 0 -15 26 -19 78 -4 42 -9 110 -12 150 -4 39 -4 72 -1 72
3 0 38 -46 78 -102z"/>
<path d="M1289 4861 c11 -19 1 -76 -35 -197 -3 -12 -18 -27 -32 -34 -25 -12
-26 -13 -8 -24 10 -6 64 -41 120 -77 55 -37 102 -66 104 -64 1 1 14 43 27 93
13 50 32 108 40 129 15 35 15 39 -1 48 -9 6 -58 37 -108 70 -50 33 -97 64
-104 68 -11 7 -12 5 -3 -12z"/>
</g>
</svg>
