<?xml version="1.0" standalone="no"?>
<!DOCTYPE svg PUBLIC "-//W3C//DTD SVG 20010904//EN"
 "http://www.w3.org/TR/2001/REC-SVG-20010904/DTD/svg10.dtd">
<svg version="1.0" xmlns="http://www.w3.org/2000/svg"
 width="900.000000pt" height="1000.000000pt" viewBox="0 0 900.000000 1000.000000"
 preserveAspectRatio="xMidYMid meet">

<g transform="translate(0.000000,1000.000000) scale(0.100000,-0.100000)"
fill="#000000" stroke="none">
<path d="M2031 9728 c0 -46 4 -101 9 -123 7 -32 9 -22 6 48 -2 48 0 87 5 87 5
0 9 -4 9 -10 0 -5 13 -31 29 -57 24 -40 74 -184 120 -343 5 -19 19 -66 31
-105 12 -38 35 -117 51 -175 53 -183 117 -387 221 -695 106 -315 141 -405 158
-405 5 0 12 -11 16 -24 3 -14 15 -27 27 -30 25 -6 96 1 147 14 19 5 51 11 70
14 45 6 148 44 226 84 47 23 71 44 100 85 33 47 85 115 277 363 21 28 42 43
62 47 17 2 31 4 33 2 1 -1 -27 -42 -64 -91 -91 -124 -160 -239 -232 -389 -70
-145 -82 -171 -82 -187 0 -8 -11 -42 -25 -75 -13 -34 -27 -81 -31 -105 -4 -24
-13 -55 -20 -70 -19 -37 -18 -251 1 -362 19 -108 51 -226 79 -291 20 -47 21
-53 7 -92 -11 -31 -12 -48 -4 -65 90 -194 110 -222 237 -322 l89 -71 -59 -17
c-64 -19 -74 -24 -176 -80 -56 -30 -69 -34 -79 -22 -6 8 -8 14 -4 14 4 0 2 7
-5 15 -20 24 -32 17 -28 -17 l3 -33 -90 -2 c-49 -1 -184 -18 -298 -37 -115
-20 -210 -36 -212 -36 -1 0 -5 11 -7 24 l-5 24 111 0 c98 0 130 5 271 41 167
43 215 59 215 70 0 4 -26 5 -58 3 l-59 -4 -25 53 c-31 66 -45 100 -65 159 -8
25 -21 59 -28 75 -11 24 -36 103 -51 160 -3 10 -23 85 -50 183 -24 89 -52 203
-58 242 -3 19 -13 69 -22 110 -8 41 -20 102 -25 135 -5 33 -11 69 -13 80 -2
11 -7 41 -10 65 -3 25 -8 54 -10 65 -2 11 -9 56 -16 100 -12 89 -20 119 -26
112 -7 -6 22 -273 45 -417 15 -100 65 -338 102 -490 40 -161 133 -440 188
-564 18 -38 30 -70 29 -72 -12 -11 -140 -36 -147 -29 -9 9 -56 165 -121 400
-32 115 -33 117 -99 375 -33 129 -65 253 -70 275 -33 126 -95 379 -107 435 -7
36 -27 119 -44 185 -17 66 -35 139 -40 163 -5 23 -13 50 -18 60 -5 9 -12 33
-15 52 -4 19 -20 87 -37 150 -17 63 -48 198 -70 300 -62 297 -69 328 -106 475
-36 147 -54 204 -65 218 -6 8 6 -53 50 -248 29 -128 80 -362 91 -417 5 -26 18
-82 29 -125 10 -43 22 -96 25 -118 9 -51 43 -196 80 -340 8 -33 43 -172 76
-310 33 -137 66 -275 74 -305 8 -30 22 -82 30 -115 8 -33 22 -87 31 -120 9
-33 20 -80 25 -105 6 -25 19 -79 31 -120 11 -41 25 -93 30 -115 10 -48 10 -48
48 -197 32 -125 53 -192 107 -354 19 -55 34 -103 34 -106 0 -7 -57 -28 -74
-28 -7 0 -11 11 -11 25 2 33 -22 183 -34 215 -5 14 -12 43 -16 65 -8 54 -34
169 -52 230 -8 28 -17 61 -19 75 -15 77 -153 502 -203 625 -5 11 -16 40 -26
65 -10 25 -32 79 -50 120 -18 41 -36 85 -40 98 -4 13 -9 22 -11 19 -5 -5 31
-120 106 -342 32 -93 61 -181 65 -195 4 -14 13 -38 20 -55 7 -16 25 -73 40
-125 15 -52 40 -138 55 -190 24 -80 49 -180 66 -264 2 -10 10 -42 18 -70 8
-28 17 -69 20 -91 2 -22 10 -61 15 -88 6 -26 14 -63 17 -82 l5 -35 -48 0
c-116 0 -156 -26 -132 -86 9 -27 10 -27 87 -20 42 4 98 9 125 13 50 6 68 -11
22 -23 -32 -8 -70 -59 -85 -114 -11 -39 -13 -42 -22 -25 -6 11 -19 30 -30 42
l-20 21 30 7 c17 3 36 12 42 19 16 21 -8 25 -67 14 -46 -9 -54 -8 -81 12 -39
29 -97 23 -182 -19 -142 -71 -356 -280 -287 -281 6 0 25 -26 41 -58 33 -66
111 -188 126 -197 5 -3 10 -11 10 -17 0 -6 -9 -3 -20 7 -22 20 -26 14 -9 -16
46 -87 206 -215 322 -259 59 -23 147 -27 147 -7 0 6 19 25 43 42 63 44 150
115 167 136 15 18 106 46 116 36 12 -11 -7 -25 -63 -46 -113 -41 -115 -61 -2
-31 41 11 77 20 80 20 4 0 18 -35 33 -77 57 -163 78 -213 94 -222 15 -9 15
-13 -6 -49 -38 -68 -22 -172 28 -185 11 -3 20 -13 20 -22 0 -9 6 -15 13 -12 8
3 12 30 11 93 -1 97 9 81 22 -33 6 -59 8 -64 20 -48 15 21 11 133 -6 165 -19
35 -10 43 16 15 33 -36 45 -78 38 -125 -7 -44 -11 -51 -43 -73 -21 -14 -22
-17 -8 -22 31 -12 52 1 84 50 24 37 33 61 33 93 0 74 -41 141 -88 145 -16 1
-24 14 -36 62 -9 33 -29 109 -45 168 -21 77 -26 109 -18 112 14 5 108 18 317
45 85 11 169 26 185 34 18 8 38 10 50 5 11 -4 37 -8 57 -8 l37 -1 -15 -42
c-64 -174 64 -548 186 -548 l25 0 -30 19 c-39 24 -57 46 -88 106 -57 111 -89
313 -62 390 25 71 60 102 95 85 8 -4 27 -13 42 -19 52 -20 103 -158 116 -317
6 -60 8 -112 6 -115 -1 -3 -8 -34 -13 -70 -7 -39 -17 -69 -28 -76 -24 -18 -8
-28 22 -15 20 9 27 9 30 -1 2 -6 11 -33 19 -58 8 -26 38 -94 66 -152 36 -74
49 -113 45 -128 -5 -15 2 -32 24 -59 17 -21 31 -50 31 -64 0 -14 7 -43 15 -63
29 -74 27 -84 -29 -127 -28 -22 -65 -55 -82 -73 -20 -21 -38 -31 -47 -27 -12
4 -14 0 -10 -18 4 -13 12 -27 20 -31 7 -4 13 -12 13 -17 0 -5 -44 -43 -97 -85
-54 -42 -108 -85 -121 -96 -12 -10 -24 -19 -27 -19 -3 0 -33 -28 -67 -62 -35
-34 -66 -63 -70 -64 -5 -1 -10 -2 -13 -3 -12 -3 39 -86 89 -145 l54 -63 -37
-12 c-66 -24 -304 -146 -385 -199 -28 -18 -53 -32 -57 -32 -5 0 -20 -11 -34
-24 -14 -13 -39 -30 -55 -38 -29 -14 -30 -14 -107 59 -43 40 -81 73 -85 73 -3
0 -21 12 -38 26 -33 28 -100 46 -121 33 -9 -5 -11 -34 -6 -110 6 -98 5 -103
-18 -131 -14 -16 -44 -66 -67 -111 -37 -72 -42 -90 -41 -147 0 -79 36 -173 94
-251 25 -33 37 -59 33 -69 -15 -35 -15 -58 0 -73 9 -8 16 -20 16 -26 0 -12 51
-21 94 -18 26 2 31 -3 42 -38 8 -22 19 -49 25 -59 34 -59 106 -276 159 -486
12 -46 -14 -146 -45 -178 -13 -13 -26 -36 -30 -51 -7 -32 -64 -62 -256 -132
-63 -23 -152 -56 -199 -74 -166 -64 -165 -64 -184 -53 -14 8 -18 6 -23 -10 -6
-23 -80 -63 -127 -68 -40 -5 -43 -10 -15 -33 21 -17 48 -26 114 -37 43 -8 312
-10 350 -3 22 4 65 10 95 13 109 12 188 37 220 67 20 19 104 44 215 64 117 21
123 23 136 46 8 16 6 29 -10 60 -12 22 -21 50 -21 62 0 12 -13 37 -29 54 -16
18 -32 46 -36 63 -7 34 -16 37 -35 15 -10 -12 -11 -24 -2 -50 12 -40 8 -42
-32 -16 -17 11 -33 18 -38 15 -11 -7 -58 26 -58 42 0 7 16 50 36 95 l36 81
-32 117 c-17 64 -43 143 -56 177 -13 33 -24 67 -24 75 0 8 -6 25 -13 39 -33
62 -31 68 46 118 93 60 162 92 197 92 16 0 32 5 35 10 3 6 10 10 15 10 12 0
44 -67 59 -122 11 -40 11 -53 -1 -85 -9 -21 -21 -63 -28 -93 -7 -30 -19 -75
-27 -100 -9 -25 -17 -54 -18 -65 -2 -11 -8 -38 -14 -60 -18 -69 -52 -247 -48
-252 3 -2 15 26 27 64 12 37 25 77 30 88 8 17 41 126 83 270 6 22 22 67 35
100 28 69 26 129 -6 192 -17 32 -18 41 -7 56 7 10 11 40 10 72 -3 74 22 112
88 134 30 11 52 25 60 40 10 21 28 27 127 47 168 34 283 51 366 53 71 2 74 1
75 -21 0 -13 2 -32 4 -43 2 -11 9 -56 14 -99 6 -44 15 -84 20 -90 5 -6 12 -61
16 -121 6 -106 28 -313 40 -385 4 -19 6 -64 6 -100 -1 -105 14 -151 68 -206
65 -68 88 -86 191 -149 49 -31 93 -61 97 -68 8 -13 7 -242 -2 -297 -3 -19 -2
-40 2 -45 20 -27 93 -74 129 -84 41 -11 51 -13 154 -26 94 -11 107 -20 121
-78 6 -29 25 -67 40 -85 16 -18 29 -36 29 -40 0 -4 26 -35 58 -70 45 -48 64
-62 87 -62 l28 0 -20 22 c-41 47 -166 369 -192 498 -19 91 -28 347 -24 685 3
176 5 408 6 515 2 107 -1 200 -6 207 -5 6 -7 24 -5 40 3 17 6 22 10 13 3 -8
13 -37 22 -65 49 -137 68 -192 77 -210 25 -55 90 -280 134 -465 7 -30 20 -79
30 -108 18 -59 17 -64 -39 -127 -45 -51 -74 -99 -81 -132 -6 -29 -2 -38 32
-71 21 -21 55 -48 76 -61 41 -25 44 -37 20 -78 -10 -18 -14 -39 -10 -55 12
-46 138 -152 237 -199 19 -9 80 -61 136 -115 55 -54 114 -106 130 -114 52 -27
154 -101 154 -112 0 -7 29 -61 64 -122 89 -155 176 -333 176 -361 0 -26 29
-124 42 -142 5 -6 17 -9 25 -6 13 5 15 3 8 -13 -5 -10 -10 -37 -13 -60 -4 -47
5 -55 98 -92 64 -26 242 -45 334 -38 34 3 93 8 132 11 134 10 204 43 204 96 0
47 -118 138 -223 174 -36 12 -243 65 -254 65 -2 0 1 9 7 19 5 11 10 28 10 39
0 17 -116 141 -164 175 -12 9 -20 29 -22 63 -7 88 -70 393 -85 408 -5 6 -9 16
-9 23 0 7 -11 36 -24 65 -14 29 -40 88 -60 131 l-35 78 23 37 c54 87 101 219
84 239 -14 17 -90 51 -134 59 -19 3 -37 11 -40 16 -4 5 7 29 24 52 26 36 30
50 29 103 -1 60 -1 61 -46 92 -26 17 -81 45 -124 62 -68 28 -78 35 -74 53 24
111 38 180 42 212 2 22 11 75 20 119 8 44 20 116 25 160 5 44 11 94 14 110 8
47 22 216 25 289 1 27 2 28 19 14 45 -39 50 -27 16 50 -51 121 -51 113 9 144
28 15 68 30 87 33 57 10 131 36 153 54 11 9 34 48 53 88 18 39 39 75 47 80 26
15 97 104 97 121 0 11 -18 -3 -50 -38 -50 -55 -50 -55 -30 -15 11 22 20 45 20
51 0 7 13 38 29 71 24 48 31 54 36 38 4 -11 10 -29 15 -40 4 -11 16 -50 25
-87 l17 -67 -45 -63 c-25 -35 -56 -75 -69 -89 -13 -14 -48 -56 -80 -95 -77
-95 -225 -234 -248 -234 -6 0 -10 -5 -10 -11 0 -6 7 -8 16 -5 9 3 29 6 46 6
24 0 46 15 105 73 171 165 313 370 313 451 0 52 -35 167 -61 200 l-21 26 57
153 c32 83 63 166 71 182 12 27 107 329 139 445 3 8 14 49 26 90 35 128 59
269 69 420 5 80 12 163 15 185 2 22 7 92 11 155 4 63 7 129 8 145 1 17 3 47 4
68 1 22 7 37 15 37 6 0 35 22 62 48 28 26 62 56 76 67 28 22 59 78 59 107 0
25 -91 197 -146 274 l-43 61 4 94 c3 91 6 487 5 657 0 46 -4 81 -9 78 -15 -10
-25 -203 -36 -686 -3 -124 -7 -265 -10 -315 -2 -49 -7 -164 -11 -255 -3 -91
-10 -169 -15 -175 -6 -6 -7 42 -4 120 17 419 30 1201 19 1178 -10 -23 -24 -14
-24 16 0 21 -6 30 -22 35 -36 9 -41 7 -28 -9 10 -12 10 -18 0 -30 -7 -8 -11
-34 -8 -60 2 -25 2 -45 1 -45 -1 0 -17 9 -35 20 -39 24 -95 26 -125 5 -26 -18
-38 -62 -22 -81 16 -19 43 -18 35 2 -10 27 12 54 45 54 33 0 89 -25 89 -40 0
-5 6 -7 13 -4 11 4 14 -22 14 -126 1 -103 -2 -130 -12 -130 -8 0 -17 15 -21
35 -4 20 -12 35 -20 35 -24 0 -28 -31 -11 -81 29 -79 20 -116 -22 -90 -9 6
-11 18 -6 40 8 36 4 37 -31 15 -33 -22 -40 -12 -24 35 15 46 8 71 -19 71 -25
0 -44 34 -38 66 2 13 0 24 -4 24 -14 0 -11 -84 3 -98 7 -7 20 -12 30 -12 22 0
22 -7 3 -53 -18 -43 -11 -67 19 -67 14 0 26 -10 34 -29 9 -21 21 -30 44 -33
44 -7 68 20 68 77 0 32 4 45 14 45 32 0 35 -82 7 -200 -19 -79 -19 -110 0
-110 6 0 5 -10 -2 -21 -6 -12 -9 -32 -6 -45 2 -14 0 -27 -4 -30 -5 -3 -9 2 -9
10 0 35 -126 136 -151 120 -29 -18 16 -114 54 -113 l22 0 -22 9 c-26 11 -57
66 -49 87 5 13 10 13 33 -3 37 -23 91 -82 98 -105 8 -24 -20 -76 -45 -84 -27
-9 -22 -39 8 -43 49 -7 68 -85 32 -132 -11 -14 -20 -22 -20 -18 0 4 -18 1 -41
-8 -32 -13 -45 -14 -66 -5 -25 11 -25 11 -20 -16 3 -17 0 -36 -9 -47 -22 -30
-17 -70 11 -96 14 -13 30 -41 36 -62 11 -44 28 -55 58 -38 26 13 28 30 2 23
-14 -3 -20 2 -24 26 -4 17 -17 47 -30 68 -13 21 -26 50 -29 65 -5 25 -3 27 19
22 17 -5 39 4 79 31 31 20 58 35 60 32 3 -2 1 -15 -4 -28 -5 -13 -8 -71 -6
-129 1 -58 1 -99 -2 -92 -8 19 -32 14 -39 -8 -3 -10 -1 -28 4 -39 16 -28 14
-36 -14 -69 -22 -26 -23 -31 -10 -42 9 -7 29 -13 45 -14 23 -1 30 -6 30 -21 0
-14 -3 -16 -8 -7 -6 9 -12 5 -20 -13 -16 -34 -15 -56 3 -82 11 -16 13 -37 8
-88 -5 -56 -10 -68 -29 -77 -41 -19 -77 -131 -78 -248 -1 -76 1 -85 17 -83 13
1 16 -3 11 -15 -3 -10 -10 -35 -15 -57 -5 -22 -15 -62 -23 -90 -8 -27 -24 -81
-35 -119 -28 -93 -43 -125 -57 -119 -16 6 -46 -87 -43 -130 2 -18 0 -37 -3
-42 -3 -6 -9 -30 -13 -55 -4 -25 -16 -67 -26 -93 -11 -26 -28 -85 -38 -130
-44 -186 -100 -326 -165 -410 -15 -20 -55 -23 -57 -4 -5 43 -4 69 2 72 8 5 14
170 11 270 -4 84 -26 201 -48 245 -23 45 -15 133 14 161 26 24 27 40 5 86 -26
56 -75 63 -110 16 -37 -52 -51 -68 -56 -63 -2 3 4 39 15 80 26 98 28 236 5
311 -9 30 -33 91 -53 135 -20 43 -38 86 -39 94 -1 8 -7 32 -14 53 -11 33 -22
43 -75 68 -33 16 -71 29 -82 29 -40 0 -45 20 -47 196 -2 142 -5 173 -20 195
-19 28 -14 39 17 39 36 0 92 19 130 45 l35 24 23 -32 c28 -41 37 -47 71 -47
38 0 75 21 118 67 108 113 142 251 85 347 -24 41 -109 122 -167 160 -24 15
-29 15 -55 1 -34 -17 -103 -19 -156 -4 -36 9 -49 31 -28 44 6 3 10 17 10 31 0
18 -11 31 -45 52 -59 35 -71 66 -56 139 6 31 11 78 11 105 l0 48 43 0 c54 0
58 -4 44 -40 -16 -41 3 -70 65 -99 85 -38 165 -17 207 57 20 33 26 78 12 86
-7 5 -7 15 0 34 17 41 13 73 -16 143 -31 74 -46 92 -99 127 -35 22 -47 24
-104 19 -47 -5 -62 -3 -59 6 13 40 185 56 259 23 53 -23 77 -21 88 9 5 14 17
25 28 25 10 0 22 4 27 9 6 4 26 11 46 14 l37 5 6 -51 c4 -29 9 -72 12 -97 10
-100 36 -295 39 -300 1 -3 6 -45 10 -95 4 -49 8 -92 10 -95 2 -3 6 -50 10
-104 3 -55 8 -102 9 -105 2 -3 7 -72 10 -152 4 -81 8 -155 10 -165 13 -70 28
-907 16 -899 -10 6 -20 84 -25 203 -2 50 -6 96 -9 100 -2 4 -6 45 -7 91 -3
127 -22 203 -47 187 -6 -3 -4 -29 4 -68 14 -60 33 -378 34 -541 l0 -79 -50 60
c-46 55 -67 72 -91 72 -17 0 -9 -67 15 -114 l24 -47 -47 3 c-42 3 -46 5 -49
31 -4 35 -22 25 -22 -12 0 -34 15 -48 55 -51 92 -6 113 10 73 55 -23 27 -35
55 -37 89 -1 16 1 17 16 5 9 -8 37 -39 63 -70 46 -55 47 -59 53 -140 4 -46 7
-131 8 -189 1 -58 5 -114 10 -125 9 -23 10 -15 16 165 6 156 6 146 1 230 l-5
75 14 -45 c8 -25 14 -64 14 -87 1 -24 7 -47 15 -54 29 -24 36 5 35 153 -2 332
-16 858 -27 998 -3 36 -5 79 -6 95 -1 50 -48 579 -53 595 -4 14 -10 66 -20
165 -8 86 -16 134 -36 248 -12 64 -20 119 -17 122 3 3 31 7 63 10 152 11 6 27
-190 20 -290 -10 -572 -55 -757 -120 -40 -14 -84 -27 -98 -29 -79 -12 -141
-29 -189 -52 l-53 -27 5 -47 c7 -62 102 -455 193 -800 77 -290 111 -424 150
-590 20 -85 60 -249 90 -364 30 -115 54 -214 54 -221 0 -17 29 -115 41 -137 5
-10 9 -24 9 -32 0 -8 12 -57 26 -108 14 -51 32 -118 41 -148 8 -30 19 -63 24
-72 5 -10 9 -26 9 -36 0 -10 23 -85 50 -167 28 -83 55 -168 61 -190 12 -49 66
-213 79 -240 5 -11 21 -56 35 -100 33 -100 51 -128 76 -122 10 3 17 0 16 -7
-2 -13 2 -13 67 -2 40 6 58 17 107 64 32 31 59 60 59 65 0 5 9 22 20 37 11 16
33 59 50 97 16 37 29 59 30 49 0 -10 -11 -42 -25 -70 -13 -28 -44 -101 -67
-163 -42 -108 -44 -112 -73 -112 -16 0 -46 -3 -65 -6 -70 -14 -155 -22 -161
-16 -4 3 -23 51 -44 106 -21 55 -44 114 -51 130 -17 41 -98 289 -143 440 -57
192 -73 254 -74 280 -1 17 -7 35 -13 40 -6 6 -17 30 -23 55 -7 25 -20 77 -30
115 -10 39 -26 90 -35 115 -9 25 -16 53 -16 63 0 10 -8 43 -19 75 -10 31 -28
93 -40 137 -11 44 -35 130 -52 190 -31 111 -44 162 -58 245 -4 25 -12 54 -18
65 -6 11 -25 76 -42 145 -17 69 -38 150 -47 180 -9 30 -17 64 -19 75 -1 11 -9
43 -18 70 -8 28 -15 55 -16 60 -1 6 -7 28 -13 50 -6 22 -12 47 -13 55 -1 8
-10 42 -19 75 -10 33 -22 80 -28 105 -5 25 -14 63 -19 85 -5 22 -11 51 -14 65
-6 29 -23 93 -36 130 -4 14 -11 43 -15 65 -4 22 -9 45 -13 50 -3 6 -6 15 -7
20 -6 37 -35 165 -39 176 -13 35 547 190 808 224 60 8 116 16 125 19 16 4 76
9 252 21 201 13 572 16 606 5 26 -9 39 -9 47 -1 23 23 -6 29 -253 50 -143 12
-408 5 -620 -15 -167 -16 -548 -95 -660 -136 -30 -11 -89 -30 -130 -43 -109
-34 -224 -76 -234 -86 -6 -6 -4 -14 6 -21 9 -7 20 -29 23 -50 6 -31 4 -37 -16
-43 -12 -4 -42 -26 -66 -48 -35 -32 -46 -38 -53 -27 -5 8 -7 17 -6 20 20 36
97 207 111 245 10 28 26 68 36 90 38 86 49 145 46 252 l-4 105 -50 48 c-40 38
-53 58 -58 92 -4 23 -11 49 -15 58 -5 8 -23 58 -41 110 -38 113 -103 254 -173
370 -84 141 -351 401 -566 551 -111 78 -253 158 -336 190 -43 17 -80 32 -82
34 -2 2 4 15 14 30 24 37 24 130 0 167 -13 21 -39 34 -113 58 -58 18 -100 27
-107 22 -6 -5 -26 -12 -44 -16 -19 -3 -46 -15 -62 -26 -15 -11 -34 -20 -42
-20 -22 -1 -98 -38 -98 -49 0 -5 7 -11 15 -13 11 -2 -15 -35 -77 -100 -51 -53
-127 -134 -168 -180 -112 -123 -250 -262 -292 -293 -22 -15 -44 -25 -53 -21
-9 3 -48 -10 -88 -29 -40 -19 -99 -40 -131 -46 -32 -6 -69 -14 -81 -19 -12 -5
-49 -11 -81 -15 l-60 -6 -31 98 c-17 54 -48 152 -68 218 -20 66 -40 128 -45
137 -6 10 -10 26 -10 36 0 10 -16 65 -35 123 -20 57 -40 118 -45 134 -4 17
-26 84 -48 150 -22 66 -69 212 -104 324 -35 113 -68 209 -74 215 -6 6 -27 41
-48 79 -21 37 -40 67 -42 67 -2 0 -4 -37 -3 -82z m2026 -999 c24 -10 43 -16
43 -14 0 12 279 -151 325 -190 l29 -24 -26 -28 c-59 -63 -112 -213 -127 -358
-10 -95 -30 -133 -114 -213 l-56 -53 -72 16 c-39 8 -79 21 -89 30 -9 8 -21 15
-26 15 -12 0 -88 79 -103 108 -10 19 -9 25 13 45 23 21 24 25 15 100 -7 64 -6
96 10 172 11 52 23 100 27 107 5 7 9 36 10 63 1 28 5 84 8 125 l7 75 -25 -40
c-14 -22 -26 -44 -26 -48 0 -5 -18 -46 -40 -90 -21 -45 -47 -104 -56 -130 -12
-34 -28 -56 -56 -75 -32 -22 -37 -31 -32 -52 3 -14 4 -23 2 -20 -2 3 -28 31
-57 62 l-53 57 29 38 c15 21 30 40 33 43 3 3 25 30 49 60 25 30 80 92 124 136
44 45 77 86 73 92 -17 28 90 22 161 -9z m462 -266 c79 -59 277 -231 315 -273
23 -24 60 -64 84 -89 24 -24 55 -65 70 -90 14 -25 30 -47 34 -49 4 -2 8 -10 8
-19 0 -14 23 -61 45 -93 6 -8 22 -42 35 -74 l24 -60 -90 -84 c-49 -47 -143
-128 -209 -180 -66 -53 -140 -112 -165 -132 -25 -20 -63 -49 -85 -63 -42 -28
-63 -44 -157 -114 -31 -24 -64 -43 -73 -43 -9 0 -15 -6 -12 -12 11 -33 77 2
257 135 52 39 118 87 146 108 28 20 57 43 65 51 8 7 50 43 94 78 44 36 116
101 161 145 l82 80 12 -30 c8 -16 18 -41 23 -55 14 -36 37 -91 52 -122 9 -17
10 -29 3 -36 -14 -14 -3 -41 37 -87 48 -56 50 -67 17 -122 -17 -26 -41 -82
-56 -123 -14 -41 -37 -106 -52 -145 -14 -38 -35 -97 -46 -130 -11 -33 -24 -68
-29 -77 -5 -10 -9 -24 -9 -33 0 -8 -7 -29 -14 -47 -8 -18 -36 -100 -62 -183
-37 -115 -62 -174 -109 -255 -34 -58 -88 -149 -119 -202 -39 -65 -62 -95 -71
-91 -8 2 -36 0 -63 -6 -52 -11 -56 -10 -242 62 -107 41 -304 128 -315 138 -5
5 -14 9 -20 9 -19 0 -241 121 -370 201 -179 112 -362 276 -421 379 -4 8 12 0
36 -19 25 -18 110 -77 190 -129 80 -53 152 -102 160 -108 8 -7 65 -49 125 -95
102 -76 147 -113 218 -176 47 -42 39 -21 -12 32 -74 78 -211 198 -262 230 -32
20 -74 50 -91 65 -9 8 -94 65 -187 125 l-171 110 6 58 c5 44 2 62 -9 75 -8 9
-24 49 -36 87 -25 76 -62 285 -51 285 4 0 33 -13 66 -28 212 -102 479 -157
809 -168 195 -6 217 5 50 25 -332 39 -523 70 -645 106 -96 27 -148 44 -215 68
l-70 25 -5 79 c-7 111 16 253 60 368 81 213 152 357 244 500 32 50 60 92 62
94 9 10 92 -95 189 -241 60 -89 127 -176 156 -202 60 -54 127 -79 184 -67 68
14 90 27 140 83 53 58 82 114 90 174 9 66 37 178 48 192 5 6 7 12 4 12 -7 0
13 45 61 138 18 34 35 62 39 62 3 0 22 -12 42 -27z m833 -1255 c4 -51 -1 -78
-25 -143 -58 -158 -274 -600 -277 -565 0 3 12 37 26 75 14 39 32 90 41 115 22
67 93 262 104 285 4 11 18 47 30 80 11 33 26 74 33 90 7 17 22 51 32 77 11 27
22 48 26 48 3 0 8 -28 10 -62z m-4 -600 c10 -48 38 -180 47 -218 2 -8 17 -69
34 -135 29 -115 71 -295 93 -400 5 -27 16 -68 23 -90 8 -22 21 -67 29 -100 9
-33 26 -100 40 -148 l24 -88 -23 15 c-50 33 -168 49 -227 31 -13 -4 -43 -24
-67 -43 l-44 -36 -58 62 c-77 84 -169 224 -180 273 -21 91 6 393 48 549 18 66
71 183 107 236 29 43 125 144 136 144 4 0 12 -24 18 -52z m-178 -30 c0 -7 -9
-24 -21 -38 l-20 -25 18 38 c18 39 23 45 23 25z m1100 -57 c0 -6 -5 -13 -10
-16 -6 -4 -8 -15 -5 -26 7 -20 -3 -23 -42 -13 -24 7 -22 30 5 52 19 14 52 16
52 3z m-1218 -163 c-7 -7 -12 -8 -12 -2 0 14 12 26 19 19 2 -3 -1 -11 -7 -17z
m-1298 -87 c63 -38 142 -84 177 -101 35 -18 66 -37 68 -42 8 -23 233 -246 321
-319 l98 -80 -30 -86 c-44 -130 -142 -270 -183 -261 -10 2 -25 24 -36 53 -23
61 -84 146 -109 152 -21 6 -63 65 -96 133 -54 113 -189 250 -327 331 -98 58
-218 78 -201 34 4 -10 0 -15 -10 -15 -9 0 -16 6 -16 13 0 24 -30 76 -53 92
-12 8 -32 15 -44 15 -39 0 -26 14 50 52 120 61 170 80 222 88 28 4 51 8 53 9
2 0 54 -30 116 -68z m1279 11 c-3 -18 -10 -31 -17 -29 -14 5 -21 47 -7 47 6 0
11 8 11 17 0 10 3 13 9 8 5 -6 7 -25 4 -43z m-39 -89 c-1 -21 -2 -48 -3 -61
-1 -13 -5 -20 -11 -17 -5 3 -7 19 -3 35 3 17 0 36 -7 44 -6 9 -9 24 -5 36 11
34 32 6 29 -37z m-1804 -13 c-21 -19 -37 -27 -44 -21 -6 4 -28 11 -49 15 -50
9 -37 26 21 27 26 1 58 4 72 8 37 11 37 5 0 -29z m3947 18 c-3 -8 -6 -5 -6 6
-1 11 2 17 5 13 3 -3 4 -12 1 -19z m-2193 -42 c-3 -13 0 -34 6 -46 10 -19 9
-21 -6 -18 -25 5 -35 42 -18 67 20 28 26 27 18 -3z m-1606 -28 c21 -18 13 -28
-20 -28 -18 0 -48 -9 -65 -20 -32 -19 -33 -19 -43 -1 -8 15 -4 22 18 37 51 35
77 38 110 12z m3929 -38 c11 -19 46 -82 77 -139 46 -82 56 -105 45 -112 -8 -5
-18 -9 -23 -9 -5 0 -42 -30 -82 -66 -69 -61 -74 -64 -69 -37 4 23 14 285 15
388 0 33 9 27 37 -25z m-4185 -12 c5 -44 -1 -70 -15 -65 -15 5 -40 84 -33 103
10 26 43 -1 48 -38z m-76 0 c6 -24 14 -50 18 -58 5 -12 -10 -24 -64 -49 -68
-31 -72 -32 -91 -15 -14 13 -19 30 -19 68 0 28 4 57 9 64 9 15 59 29 106 31
28 1 31 -3 41 -41z m150 1 c29 -47 26 -66 -10 -66 -19 0 -26 5 -27 21 -1 11
-3 36 -5 54 -5 44 10 40 42 -9z m962 -12 c96 -89 274 -198 389 -238 65 -23
179 -27 216 -8 39 21 184 138 243 197 11 11 13 2 10 -50 -2 -35 -4 -81 -5
-103 -1 -37 -7 -45 -94 -121 -141 -123 -144 -124 -186 -37 -35 76 -37 78 -61
81 -23 4 -23 4 4 -29 24 -28 76 -120 76 -133 0 -8 -46 11 -115 46 -59 29 -129
77 -191 127 -17 15 -49 40 -70 58 -42 33 -46 37 -150 129 -38 34 -85 75 -104
92 -19 17 -29 32 -22 32 7 0 34 -19 60 -43z m803 -7 c22 0 6 -28 -32 -57 -54
-42 -91 -28 -55 20 12 15 18 17 35 7 32 -16 49 -1 21 20 -20 15 -21 19 -9 38
l14 22 8 -25 c5 -14 13 -25 18 -25z m-2347 22 c15 -18 14 -20 -26 -38 -54 -24
-140 -111 -169 -170 -17 -36 -20 -57 -16 -99 13 -126 135 -304 209 -306 18 -1
44 -4 58 -8 24 -7 23 -8 -18 -24 -51 -20 -68 -21 -79 -4 -4 6 -21 19 -38 27
-47 23 -173 156 -257 272 l-76 106 41 40 c23 22 61 57 84 77 48 41 229 145
254 145 9 0 23 -8 33 -18z m239 -149 c-8 -6 -10 -14 -5 -17 6 -3 14 -48 18
-98 5 -51 9 -97 10 -103 1 -5 2 -16 3 -23 2 -19 101 -121 134 -138 15 -8 25
-19 22 -25 -15 -23 -172 111 -214 184 -22 36 -49 52 -37 21 3 -9 6 -19 6 -24
0 -5 6 -15 13 -22 6 -7 24 -29 38 -48 15 -19 37 -46 49 -60 l22 -25 -26 -3
c-36 -5 -104 51 -127 102 -29 68 -26 171 7 224 12 18 12 22 1 22 -27 0 -51
-77 -51 -160 0 -69 4 -84 28 -120 15 -22 38 -45 51 -50 40 -15 29 -18 -32 -8
-67 10 -87 25 -113 85 -15 33 -18 60 -15 118 4 80 19 122 64 175 27 33 29 33
60 20 l33 -13 -5 -72 c-6 -72 4 -113 22 -87 11 18 22 141 15 170 -4 13 2 43
12 70 l19 47 6 -65 c4 -49 2 -68 -8 -77z m543 113 c7 -31 1 -42 -36 -61 -25
-13 -29 -13 -40 0 -7 8 -19 15 -26 15 -19 0 -18 30 3 52 10 11 30 18 54 18 33
0 40 -4 45 -24z m226 -29 c-1 -8 2 -18 8 -22 5 -3 10 -1 10 4 0 6 9 11 19 11
17 0 18 -4 11 -29 -4 -16 -6 -32 -2 -35 10 -11 22 -6 22 10 0 9 6 14 13 12 15
-5 23 -48 9 -48 -6 0 -17 -3 -25 -6 -11 -4 -26 11 -50 48 -19 29 -44 62 -56
72 -32 29 -25 40 12 19 18 -11 31 -26 29 -36z m-61 -30 c25 -31 57 -81 71
-109 24 -49 60 -186 71 -269 l5 -37 -61 -7 c-34 -4 -78 -9 -97 -11 -19 -2 -64
-8 -100 -14 -36 -6 -90 -16 -119 -21 -73 -12 -81 -2 -42 56 48 71 43 80 -24
40 l-42 -24 6 29 c4 21 17 35 43 49 37 19 37 19 45 -3 5 -16 9 -7 19 39 7 33
13 77 14 97 0 44 28 105 51 111 24 6 48 47 52 87 4 32 27 52 52 46 6 -1 31
-28 56 -59z m744 25 c-3 -3 -11 0 -18 7 -9 10 -8 11 6 5 10 -3 15 -9 12 -12z
m2854 -41 c1 -11 -4 -10 -19 4 -16 14 -18 21 -8 32 10 13 13 12 19 -4 4 -10 8
-24 8 -32z m-4455 31 c3 -5 -13 -26 -34 -47 -56 -55 -85 -143 -77 -241 6 -75
16 -104 50 -141 18 -20 18 -23 4 -23 -28 0 -19 -29 11 -37 l27 -7 -25 -6 c-61
-17 -161 91 -213 230 -23 62 -22 104 6 137 54 64 90 103 93 100 2 -2 -7 -27
-21 -55 -48 -100 -33 -234 37 -315 22 -27 43 -46 45 -43 3 3 -9 35 -27 73 -26
55 -33 81 -33 133 0 120 4 130 77 208 38 40 68 53 80 34z m1720 -28 c9 -3 16
-15 16 -25 0 -22 -21 -16 -38 11 -12 20 -6 25 22 14z m429 -8 c7 -17 -11 -36
-35 -36 -23 0 -23 8 0 31 21 22 28 23 35 5z m-1457 -12 c-4 -24 -36 -40 -47
-23 -13 21 -11 27 14 32 12 2 25 5 29 6 3 0 5 -6 4 -15z m-99 -49 c2 -11 6
-52 10 -92 l6 -72 -34 -14 -34 -14 -3 41 c-3 32 1 44 17 55 27 17 27 41 1 41
-17 0 -20 7 -20 39 0 22 -3 47 -7 57 -6 17 -4 17 27 -2 18 -10 35 -28 37 -39z
m-207 4 c0 -16 6 -45 14 -64 l15 -34 -47 -17 c-189 -67 -194 -106 -6 -49 l42
13 6 -40 c4 -21 4 -43 1 -47 -2 -5 -25 -14 -50 -21 -24 -7 -50 -19 -56 -27
-10 -12 -21 -5 -65 38 -29 29 -50 57 -47 62 7 12 5 111 -3 156 -6 31 -5 34 15
28 21 -5 58 3 106 23 57 24 75 19 75 -21z m72 24 c26 -30 32 -78 12 -98 -17
-16 -18 -15 -35 16 -35 66 -17 128 23 82z m1343 6 c12 -19 -5 -23 -22 -6 -16
16 -16 17 -1 17 9 0 20 -5 23 -11z m70 -23 c18 -13 18 -14 -8 -9 -15 3 -27 9
-27 14 0 13 13 11 35 -5z m-767 -32 c-4 -3 -12 5 -18 18 -12 22 -12 22 6 6 10
-10 15 -20 12 -24z m986 15 c-3 -5 -10 -7 -15 -3 -5 3 -7 10 -3 15 3 5 10 7
15 3 5 -3 7 -10 3 -15z m-257 -4 c8 -9 23 -13 33 -10 11 3 20 0 24 -10 3 -8 1
-15 -4 -15 -19 0 -90 32 -90 41 0 14 20 11 37 -6z m2013 -5 c6 -11 8 -20 6
-20 -3 0 -10 9 -16 20 -6 11 -8 20 -6 20 3 0 10 -9 16 -20z m-2815 -13 c0 -8
4 -19 8 -23 12 -12 8 -23 -12 -34 -17 -9 -21 -5 -31 26 -10 30 -10 38 1 45 19
12 34 6 34 -14z m1013 4 c10 -6 10 -10 -2 -20 -12 -10 -17 -8 -26 8 -12 23 2
29 28 12z m-74 -17 c9 -3 16 -12 16 -20 0 -11 -7 -13 -27 -8 -35 9 -43 13 -43
25 0 10 30 12 54 3z m-894 -43 c0 -5 -7 -12 -16 -15 -14 -5 -15 -4 -4 9 14 17
20 19 20 6z m20 -46 c0 -9 -12 -18 -30 -21 -30 -6 -38 -21 -21 -39 5 -6 12
-21 16 -35 l7 -25 -20 21 c-31 33 -33 84 -3 84 10 0 24 7 31 15 16 19 20 19
20 0z m-612 -37 c-2 -36 -7 -44 -25 -46 -21 -3 -23 1 -23 36 0 39 8 49 38 51
9 1 12 -11 10 -41z m2990 -52 c44 -23 65 -52 58 -81 -8 -31 -23 -31 -57 -2
-29 24 -49 57 -49 81 0 20 13 20 48 2z m-2303 -26 c-3 -5 -11 -10 -16 -10 -6
0 -7 5 -4 10 3 6 11 10 16 10 6 0 7 -4 4 -10z m-699 -60 c1 -18 -4 -30 -11
-30 -17 0 -27 42 -12 52 19 12 22 10 23 -22z m-69 -52 c-17 -11 -18 -10 -57
23 -19 16 -28 28 -20 25 8 -3 29 -2 45 2 27 8 31 6 37 -17 5 -16 3 -28 -5 -33z
m667 48 c-3 -8 -13 -17 -22 -21 -13 -5 -13 -2 3 15 21 24 26 25 19 6z m199 4
c16 0 26 -4 22 -10 -12 -19 -155 -7 -155 13 0 6 20 7 53 3 28 -3 65 -6 80 -6z
m3236 -22 c-1 -7 -5 -24 -9 -38 -7 -22 -8 -21 -9 13 -1 20 4 37 9 37 6 0 10
-6 9 -12z m-2774 -135 c-3 -54 -7 -188 -10 -298 -3 -110 -7 -220 -11 -245 -7
-56 -34 -194 -40 -199 -3 -3 -61 117 -84 174 -45 114 -46 118 -38 220 5 57 4
127 -2 164 -10 67 -7 81 14 81 20 0 100 84 137 144 18 31 34 56 36 56 1 0 0
-44 -2 -97z m-1476 57 c-8 -4 -38 -13 -67 -20 -28 -6 -55 -16 -58 -21 -3 -5
-16 -9 -30 -9 -24 0 -24 0 9 29 26 24 44 30 88 33 59 3 79 -1 58 -12z m4178
-12 c-3 -7 -5 -2 -5 12 0 14 2 19 5 13 2 -7 2 -19 0 -25z m-4357 13 c0 -5 -9
-11 -21 -14 -16 -4 -18 -3 -8 9 13 16 29 19 29 5z m4417 -68 c-2 -16 -4 -3 -4
27 0 30 2 43 4 28 2 -16 2 -40 0 -55z m-4472 37 c-3 -5 -12 -10 -18 -10 -7 0
-6 4 3 10 19 12 23 12 15 0z m4398 -39 c-6 -22 -12 -28 -22 -22 -11 7 -10 13
5 34 23 31 27 28 17 -12z m-4188 11 c-26 -23 -153 -120 -175 -134 -24 -14 -30
-14 -85 6 -33 12 -69 27 -80 33 l-20 12 20 6 c11 3 50 19 87 35 42 17 70 24
74 18 3 -5 16 -7 28 -3 21 6 132 31 151 34 5 1 5 -2 0 -7z m-439 -24 l19 -23
-25 20 c-14 11 -27 21 -29 22 -2 2 0 3 6 3 5 0 18 -10 29 -22z m3136 -17 c50
-28 57 -36 68 -79 7 -26 35 -126 61 -222 27 -96 49 -181 49 -189 0 -8 -7 -23
-17 -33 -9 -10 -13 -21 -9 -26 4 -4 13 1 20 10 12 16 14 13 26 -25 23 -78 48
-162 54 -182 3 -11 14 -51 25 -90 11 -38 19 -70 18 -70 -8 -3 -171 -46 -207
-54 -25 -6 -67 -13 -94 -15 -51 -5 -58 0 -128 90 l-20 25 29 37 c43 54 50 71
51 136 1 32 4 67 7 77 5 14 -1 22 -22 30 -101 38 -161 93 -207 189 -28 59 -31
75 -33 177 l-3 111 33 48 c69 100 182 121 299 55z m-3072 -27 c0 -2 -9 0 -20
6 -11 6 -20 13 -20 16 0 2 9 0 20 -6 11 -6 20 -13 20 -16z m4617 -356 c-4 -35
-6 -84 -6 -110 -1 -28 -6 -48 -12 -48 -7 0 -9 14 -5 38 3 20 7 70 8 110 2 39
7 72 11 72 5 0 7 -28 4 -62z m-3893 1 c3 -17 6 -48 6 -67 0 -56 -21 -24 -27
42 -6 60 10 79 21 25z m3774 -524 c-6 -14 -13 -23 -15 -21 -5 5 15 46 22 46 3
0 -1 -11 -7 -25z m-33 -102 c-8 -21 -35 -95 -59 -164 -25 -69 -49 -137 -54
-150 -5 -13 -20 -55 -32 -94 -13 -38 -33 -94 -46 -123 -13 -29 -24 -56 -24
-61 0 -15 -31 -83 -36 -79 -5 5 32 114 116 338 34 91 78 211 98 268 20 56 40
102 43 102 4 0 1 -17 -6 -37z m-1046 -73 c12 -35 26 -26 -141 -90 -104 -40
-127 -53 -111 -63 9 -6 109 24 201 59 34 13 64 24 67 24 6 0 27 -81 23 -85
-10 -10 -181 -74 -315 -117 -84 -28 -153 -54 -153 -59 0 -13 16 -11 95 10 130
35 247 73 309 100 33 16 66 28 71 28 6 0 15 -17 21 -38 14 -46 19 -42 -101
-84 -44 -16 -84 -31 -90 -35 -25 -17 -318 -100 -444 -125 l-33 -7 7 33 c7 34
30 96 67 177 10 24 28 69 40 100 11 32 23 60 27 63 3 4 29 10 56 13 93 11 262
63 340 104 52 27 51 27 64 -8z m580 -19 c-2 -6 -12 4 -22 22 l-18 32 21 -21
c13 -12 21 -27 19 -33z m-2041 -15 c7 -8 -18 -36 -33 -36 -21 0 -36 25 -24 37
11 11 46 10 57 -1z m-66 -39 l25 -12 -41 -78 c-23 -42 -45 -76 -50 -75 -4 2
-26 19 -47 39 l-39 36 25 17 c23 15 27 15 50 0 13 -8 32 -14 42 -12 15 3 13 8
-14 27 l-31 23 26 24 c32 28 25 26 54 11z m-56 -220 c4 -14 7 -149 4 -292 0
-23 -6 -33 -29 -43 -35 -15 -181 -167 -181 -188 0 -19 8 -17 55 11 22 14 48
25 57 25 19 0 57 -73 127 -244 12 -28 24 -115 36 -251 3 -33 8 -70 11 -83 4
-21 2 -23 -18 -16 -24 7 -206 7 -218 -1 -4 -3 -36 -9 -71 -15 -35 -5 -102 -19
-149 -30 -47 -11 -94 -23 -106 -25 -14 -3 -32 8 -61 38 -42 44 -53 51 -143 87
-84 34 -211 134 -231 183 -10 24 -9 30 7 42 59 46 455 252 556 290 43 16 48
16 69 1 26 -18 39 -20 39 -7 0 5 -38 47 -84 94 -77 77 -145 163 -135 170 2 2
29 21 60 44 l56 41 34 -60 c37 -66 111 -138 140 -138 26 0 24 6 -15 40 -32 29
-142 178 -135 184 2 2 30 24 61 50 l58 46 24 -39 c28 -44 110 -115 126 -109 7
2 -16 33 -50 68 -88 93 -87 88 -22 141 l57 46 32 -21 c18 -12 36 -29 39 -39z
m1702 -95 c13 -37 25 -76 27 -87 2 -11 18 -58 35 -105 17 -47 38 -103 46 -125
8 -22 25 -71 38 -110 40 -119 78 -208 104 -244 19 -26 22 -35 11 -41 -7 -5
-16 -7 -19 -5 -4 2 -35 62 -70 132 -34 70 -70 136 -78 146 -15 17 -15 20 8 38
25 18 18 27 -9 10 -10 -6 -21 -1 -37 19 -13 15 -24 33 -24 38 0 20 -34 32 -50
17 -20 -17 -186 -61 -324 -84 -116 -20 -278 -27 -340 -16 l-36 7 4 102 c2 55
5 119 5 141 l1 40 53 1 c97 3 431 103 565 170 26 12 52 23 57 23 6 1 20 -30
33 -67z m-90 -526 c131 -74 266 -218 285 -304 13 -60 15 -217 3 -307 -5 -38
-8 -83 -8 -100 1 -16 -3 -45 -8 -65 -9 -35 -40 -235 -39 -248 1 -4 0 -9 -1
-12 -1 -3 -4 -18 -6 -35 -3 -16 -9 -43 -14 -60 -5 -16 -12 -58 -16 -93 -6 -52
-10 -63 -23 -59 -115 36 -170 48 -198 42 -18 -3 -33 -9 -33 -13 0 -4 62 -27
138 -52 75 -25 155 -53 177 -64 22 -10 69 -29 105 -41 55 -19 65 -25 66 -46 1
-42 -22 -122 -49 -176 -31 -59 -34 -104 -11 -124 13 -11 15 -11 13 2 -2 7 1
29 5 46 7 30 9 32 29 19 12 -8 40 -19 62 -26 77 -24 77 -24 54 -78 -40 -92
-52 -117 -78 -156 -30 -46 -63 -86 -108 -134 -18 -19 -33 -38 -33 -43 0 -5 -4
-9 -9 -9 -5 0 -34 -21 -66 -47 l-57 -47 -71 24 c-73 23 -82 27 -152 55 -112
46 -240 121 -283 168 -26 27 -23 67 4 67 8 0 14 10 14 26 0 28 -26 56 -124
134 -60 47 -63 52 -43 72 7 7 34 39 61 71 27 32 55 56 62 53 15 -6 44 25 44
46 0 9 18 31 40 51 69 60 202 187 196 187 -12 0 -76 -34 -76 -41 0 -4 -10 -9
-23 -13 -13 -3 -51 -31 -85 -61 -72 -65 -67 -69 -97 70 -25 114 -58 228 -94
320 -18 44 -42 112 -55 150 -21 60 -68 184 -95 250 -5 11 -20 56 -34 101 -19
62 -23 91 -17 125 17 103 69 257 113 334 26 46 45 52 207 63 249 17 260 17
328 -22z m-2743 -60 c87 -71 161 -150 184 -195 29 -56 141 -168 209 -208 10
-6 37 -16 59 -22 46 -13 133 -75 133 -96 0 -22 -26 -42 -65 -49 -51 -10 -70
-45 -69 -123 1 -35 -2 -63 -7 -63 -4 0 -36 7 -71 15 -35 8 -79 15 -98 16 -65
3 -244 -12 -315 -27 -38 -8 -71 -14 -72 -14 -1 0 2 12 6 28 10 35 6 60 -13 81
-9 10 -16 22 -16 28 0 6 -3 13 -7 15 -5 2 -19 30 -31 63 -13 33 -28 69 -32 80
-5 11 -16 43 -24 72 -14 51 -14 52 14 90 16 21 30 41 30 45 0 4 12 24 26 45
14 21 30 48 35 61 6 15 13 20 21 16 7 -4 24 -9 38 -11 14 -2 56 -19 95 -38 84
-42 101 -34 59 26 -31 45 -83 84 -126 94 -20 5 -28 14 -28 29 0 11 -7 30 -15
40 -8 11 -15 30 -15 43 0 21 2 23 23 12 12 -7 45 -31 72 -53z m139 -877 c-52
-34 -57 -35 -61 -22 -4 10 74 51 96 52 8 1 -7 -13 -35 -30z m79 -820 c90 -30
137 -51 137 -63 0 -6 3 -21 6 -32 5 -17 0 -23 -23 -29 -46 -13 -56 -15 -108
-21 -45 -5 -91 -20 -105 -34 -5 -4 -79 -33 -122 -47 -11 -3 -21 5 -32 26 -9
17 -30 47 -47 66 l-31 35 31 11 c53 18 188 86 195 98 10 16 28 14 99 -10z
m-319 -173 c26 -35 46 -66 46 -70 0 -3 -22 -6 -50 -6 -45 0 -53 4 -98 49 l-49
49 36 15 c20 9 43 18 51 21 8 2 16 5 17 5 1 1 22 -28 47 -63z m-175 -23 c40
-30 61 -55 56 -64 -2 -3 -20 -6 -40 -7 -26 -1 -38 3 -42 16 -3 9 -15 27 -27
40 -17 20 -18 24 -6 32 20 13 18 14 59 -17z m-101 -29 c12 -8 27 -24 32 -35
10 -18 8 -19 -44 -18 -46 2 -58 6 -71 25 -14 21 -13 23 13 32 38 14 45 14 70
-4z m-118 -39 c11 -13 8 -15 -16 -14 -16 1 -37 4 -48 6 -15 4 -16 7 -5 14 22
13 55 11 69 -6z m3754 -145 c43 -105 56 -141 70 -195 22 -85 64 -317 72 -398
4 -40 11 -67 18 -66 6 1 16 1 21 0 12 -1 95 -76 95 -85 0 -3 -17 -6 -39 -6
-31 0 -46 7 -80 39 -36 34 -41 44 -41 84 0 44 -43 147 -61 147 -9 0 -24 66
-21 91 4 26 -25 81 -80 153 -64 84 -105 117 -118 97 -4 -8 -6 -21 -3 -30 11
-31 98 -157 136 -195 23 -24 43 -57 50 -83 6 -24 18 -45 28 -48 37 -12 50
-104 22 -154 l-18 -31 49 -45 49 -46 -28 -37 c-15 -20 -35 -49 -44 -64 -9 -16
-19 -28 -23 -28 -9 0 -27 55 -44 139 -8 40 -19 81 -24 90 -5 9 -16 32 -24 51
-15 35 -21 46 -87 155 -20 33 -41 76 -48 96 -12 38 -94 122 -137 141 -17 8
-25 22 -30 53 -9 66 -4 77 48 94 27 9 69 36 97 61 38 35 59 46 92 50 79 10 87
8 103 -30z m274 -840 c17 0 132 -47 132 -54 0 -2 -20 -16 -44 -31 -48 -30
-109 -98 -120 -133 -4 -12 -5 -22 -2 -22 3 0 41 37 86 81 45 45 84 79 87 75 3
-3 14 -1 24 5 20 10 69 2 69 -11 0 -5 -10 -12 -22 -16 -58 -17 -162 -136 -140
-159 4 -4 -22 -4 -58 -1 -66 8 -170 50 -170 70 1 6 5 30 9 53 5 26 4 46 -2 52
-12 12 8 60 30 74 7 4 13 14 13 21 0 8 10 20 21 28 20 13 24 12 45 -9 13 -13
32 -23 42 -23z m317 -122 l25 -11 -38 -17 c-20 -10 -59 -40 -87 -69 -45 -46
-55 -51 -92 -51 -24 0 -43 4 -43 9 0 21 87 104 133 126 59 28 67 29 102 13z
m126 -77 c24 -21 41 -42 38 -45 -3 -3 -41 -8 -85 -11 -43 -3 -100 -8 -126 -11
-27 -2 -48 0 -48 5 0 14 69 72 104 87 49 21 71 17 117 -25z"/>
<path d="M4200 8060 c-11 -21 -6 -40 11 -40 5 0 9 6 9 14 0 8 5 18 12 22 8 5
9 2 5 -9 -4 -11 -1 -17 7 -17 16 0 29 27 20 41 -10 17 -53 9 -64 -11z"/>
<path d="M3913 8014 c-7 -18 6 -45 25 -52 11 -3 40 44 31 52 -2 2 -14 7 -27
10 -16 5 -24 3 -29 -10z"/>
<path d="M4956 7464 c-9 -22 3 -32 14 -14 12 19 12 30 1 30 -5 0 -12 -7 -15
-16z"/>
<path d="M5100 7347 c-75 -69 -124 -112 -146 -128 -12 -8 -53 -42 -90 -76
-157 -139 -304 -256 -418 -333 l-80 -53 -100 16 c-89 15 -197 36 -331 66 -22
5 -62 14 -90 19 -27 6 -104 26 -170 45 -237 69 -365 93 -365 69 0 -6 3 -12 8
-14 4 -1 16 -20 27 -41 38 -75 274 -171 557 -227 160 -32 363 -55 406 -45 15
3 56 6 92 7 42 1 79 8 105 21 58 29 180 111 261 178 97 79 283 276 339 360 25
38 53 69 61 69 8 0 14 6 14 14 0 7 2 26 5 42 3 16 1 35 -4 43 -8 13 -12 13
-27 0 -11 -9 -15 -9 -10 -1 12 20 4 14 -44 -31z"/>
<path d="M5190 7250 c-19 -46 -184 -290 -284 -420 -99 -129 -336 -414 -347
-418 -12 -5 -11 -22 1 -22 34 0 309 325 497 588 53 73 157 275 151 293 -2 7
-10 -3 -18 -21z"/>
<path d="M3509 7116 c16 -19 55 -22 49 -3 -3 6 -17 14 -33 15 -25 3 -27 2 -16
-12z"/>
<path d="M4283 7073 c9 -2 23 -2 30 0 6 3 -1 5 -18 5 -16 0 -22 -2 -12 -5z"/>
<path d="M4311 7041 c-8 -5 -10 -14 -7 -20 9 -13 33 -15 40 -2 9 14 -18 31
-33 22z"/>
<path d="M3327 6874 c-7 -7 91 -95 148 -133 22 -14 59 -40 81 -57 106 -79 396
-204 579 -249 121 -29 335 -61 335 -50 0 11 -57 27 -198 56 -309 64 -512 152
-802 346 -52 35 -104 70 -116 78 -11 8 -23 12 -27 9z"/>
<path d="M4681 6409 c-28 -26 -24 -51 10 -63 51 -18 105 49 60 74 -29 15 -45
12 -70 -11z"/>
<path d="M4332 6308 c-15 -15 -16 -55 -1 -63 14 -9 66 13 73 32 14 34 -44 59
-72 31z"/>
<path d="M4500 6297 c33 -15 41 -28 28 -44 -14 -17 -1 -63 17 -63 8 0 15 -4
15 -10 0 -5 5 -10 12 -10 6 0 9 3 5 6 -3 3 6 16 20 28 37 32 25 66 -23 66 -22
0 -34 5 -34 14 0 15 -22 26 -48 25 -12 0 -9 -4 8 -12z"/>
<path d="M4685 6186 c-27 -27 -25 -50 6 -67 25 -13 57 4 69 37 21 54 -30 75
-75 30z"/>
<path d="M4421 6108 c-12 -19 -11 -23 10 -39 31 -24 35 -24 64 5 33 33 23 56
-24 56 -26 0 -40 -6 -50 -22z"/>
<path d="M4601 6036 c-20 -24 -10 -60 17 -64 30 -4 64 26 60 52 -4 26 -58 35
-77 12z"/>
<path d="M3540 5840 c0 -13 5 -20 13 -17 6 2 12 10 12 17 0 7 -6 15 -12 18 -8
2 -13 -5 -13 -18z"/>
<path d="M3577 5667 c-3 -8 -2 -20 3 -27 11 -18 42 -4 38 17 -4 22 -34 29 -41
10z"/>
<path d="M5393 5383 c-14 -56 -7 -99 30 -177 21 -43 36 -80 34 -82 -1 -2 -33
12 -71 31 -70 36 -101 44 -94 23 6 -18 138 -87 158 -83 9 2 23 -6 31 -17 39
-57 67 -63 98 -19 25 34 27 73 6 91 -8 7 -13 16 -10 20 8 13 -32 134 -61 182
-27 46 -46 58 -91 58 -16 0 -25 -8 -30 -27z m82 -126 c10 -28 24 -62 32 -75
12 -19 12 -25 -1 -43 -13 -20 -14 -18 -21 22 -4 24 -16 67 -26 98 -22 62 -22
64 -10 56 5 -3 17 -29 26 -58z m85 -162 c0 -8 -4 -15 -9 -15 -5 0 -11 7 -15
15 -3 9 0 15 9 15 8 0 15 -7 15 -15z"/>
<path d="M4242 3804 c5 -26 35 -41 50 -26 11 11 9 16 -6 28 -26 19 -48 18 -44
-2z"/>
<path d="M4084 3619 c-3 -6 0 -15 7 -20 22 -14 29 -11 29 11 0 21 -24 27 -36
9z"/>
<path d="M5907 2014 c-3 -3 6 -27 19 -52 26 -49 25 -85 -2 -127 -7 -11 -20
-45 -28 -76 -8 -31 -22 -71 -30 -88 -19 -36 -27 -89 -15 -97 5 -3 24 -28 43
-57 54 -80 134 -166 177 -188 35 -17 39 -24 40 -59 2 -55 2 -57 17 -71 10 -11
12 -9 12 6 1 11 3 45 6 75 5 49 3 58 -21 83 -14 15 -31 27 -38 27 -7 1 -53 40
-104 88 l-92 87 24 50 c14 28 25 56 25 63 0 7 7 24 16 37 9 14 14 25 11 25 -3
0 1 16 9 35 7 19 14 53 14 76 0 62 -62 184 -83 163z"/>
<path d="M2045 9538 c2 -13 10 -61 16 -108 9 -74 46 -296 95 -580 8 -47 19
-112 24 -145 5 -33 14 -85 20 -115 12 -64 60 -377 60 -395 0 -7 -16 -12 -36
-13 -46 -2 -143 -19 -214 -39 -30 -8 -73 -19 -95 -24 -43 -10 -138 -45 -170
-62 -11 -6 -65 -33 -120 -60 -113 -57 -215 -121 -271 -172 -21 -19 -41 -35
-45 -35 -12 0 -128 -120 -183 -189 -68 -86 -170 -253 -197 -322 -12 -30 -25
-63 -30 -74 -9 -21 -28 -100 -35 -150 -13 -95 7 -226 43 -282 16 -24 17 -25
24 -5 4 11 10 47 13 80 7 76 35 211 49 237 10 19 12 18 17 -10 7 -36 12 -25
30 70 17 85 27 100 131 200 221 211 465 359 695 420 119 32 244 55 299 55 22
0 53 7 68 15 15 8 44 17 63 21 l35 7 -6 81 c-4 44 -9 84 -11 87 -2 4 -6 37 -9
75 -3 38 -8 80 -11 94 -3 14 -8 41 -10 60 -5 47 -31 219 -54 360 -11 63 -22
133 -25 155 -2 22 -9 65 -15 95 -12 64 -19 105 -25 140 -12 71 -45 251 -55
295 -6 28 -12 64 -15 80 -3 17 -7 39 -10 50 -3 11 -10 44 -16 73 -7 28 -16 52
-21 52 -4 0 -6 -10 -3 -22z"/>
<path d="M6938 6973 c7 -3 16 -2 19 1 4 3 -2 6 -13 5 -11 0 -14 -3 -6 -6z"/>
<path d="M7020 6976 c0 -2 13 -6 29 -8 17 -2 28 -1 25 4 -5 8 -54 12 -54 4z"/>
<path d="M6787 6724 c-4 -4 -7 -14 -7 -23 0 -11 3 -12 11 -4 6 6 10 16 7 23
-2 6 -7 8 -11 4z"/>
<path d="M6909 6693 c-13 -16 -12 -17 4 -4 16 13 21 21 13 21 -2 0 -10 -8 -17
-17z"/>
<path d="M6573 6577 c-7 -14 -8 -30 -3 -38 11 -17 16 -12 25 29 8 37 -7 43
-22 9z"/>
<path d="M6825 6491 c-11 -18 5 -31 36 -31 24 0 30 4 27 18 -4 19 -52 29 -63
13z"/>
<path d="M6479 6321 c-18 -15 -23 -28 -23 -59 2 -47 31 -102 56 -102 16 0 15
5 -7 46 -14 26 -25 55 -25 65 0 22 37 49 67 49 27 0 30 -12 8 -30 -12 -10 -13
-16 -5 -24 15 -14 42 21 38 49 -4 29 -75 33 -109 6z"/>
<path d="M6893 5993 c-15 -6 -17 -33 -3 -33 6 0 8 -11 4 -25 -5 -19 -2 -25 9
-25 18 0 22 5 31 42 7 29 -15 50 -41 41z"/>
<path d="M6616 5594 c-18 -17 -22 -79 -6 -89 6 -4 10 8 10 28 0 44 5 48 46 31
42 -17 45 -3 5 25 -35 25 -35 25 -55 5z"/>
<path d="M3970 5512 c0 -10 18 -63 40 -117 22 -54 38 -100 36 -103 -7 -6 -69
33 -91 58 -22 24 -35 26 -35 3 0 -9 18 -33 40 -54 22 -21 40 -41 40 -45 0 -4
11 -22 26 -41 21 -28 29 -32 52 -27 15 4 30 11 33 16 6 10 -13 79 -31 110 -6
10 -10 25 -10 34 0 15 -31 90 -63 153 -15 31 -37 39 -37 13z"/>
<path d="M6581 5426 c-15 -16 -29 -22 -46 -18 -34 6 -68 -19 -93 -69 -31 -62
-16 -66 30 -8 42 53 54 54 60 5 5 -47 25 -42 32 9 5 30 16 53 33 69 14 13 21
26 16 29 -6 4 -20 -4 -32 -17z"/>
<path d="M6409 5148 c-78 -83 -97 -152 -48 -179 27 -14 33 -7 34 39 1 37 55
132 75 132 4 0 12 -15 16 -32 l8 -33 6 30 c18 87 -29 109 -91 43z"/>
<path d="M6500 4930 c-22 -30 -22 -31 -2 -61 l19 -31 17 48 c9 26 16 54 16 61
0 23 -28 14 -50 -17z"/>
<path d="M6768 4445 c-3 -6 -9 -41 -12 -80 -26 -258 -60 -472 -100 -619 -15
-54 -24 -101 -21 -104 14 -15 41 20 58 74 20 65 49 198 46 211 -1 4 0 15 3 23
3 8 11 60 18 115 6 55 14 111 16 125 17 103 11 287 -8 255z"/>
</g>
</svg>
